<svg width="48" height="48" viewBox="0 0 48 48" xmlns="http://www.w3.org/2000/svg"><title>UX/UI</title><path d="M39.93 44.067l4.203-4.202 1.261 5.463-5.465-1.26zM25.624 30.333l-1.591-1.59-4.774-4.775-1.591-1.59-9.849-9.85 4.773-4.774 9.849 9.849 1.592 1.591 4.773 4.774 1.59 1.591 12.43 12.429-4.774 4.774-12.428-12.429zM9.853 42.922l-3.77 1.615-2.62-2.619 1.617-3.773L17.668 25.56l4.774 4.774L9.853 42.922zM3.04 7.748a1.126 1.126 0 0 1 .007-1.586L6.228 2.98a1.12 1.12 0 0 1 1.585-.007l3.189 3.19-4.774 4.773-3.189-3.188zm34.355-1.914l4.774 4.773-11.77 11.77-4.773-4.775 11.77-11.768zm5.97-3.583c.003-.002-.006-.002.003.007l2.377 2.377c.007.007.007.003.007.004l-3.184 3.183-2.387-2.387 3.183-3.184zm2.646 35.737l-14.02-14.02 9.352-9.352.877.877c.44.44.44 1.152-.002 1.595L37.8 21.502a1.126 1.126 0 0 0 1.591 1.59l4.416-4.412a3.377 3.377 0 0 0 .003-4.778l-.878-.877.826-.827 1.591-1.591-1.192-1.193 3.184-3.184a2.25 2.25 0 0 0-.007-3.187L44.958.666A2.245 2.245 0 0 0 41.772.66l-3.184 3.184-1.194-1.194-1.59 1.591h-.002v.002L24.034 16.01 9.404 1.382a3.369 3.369 0 0 0-4.767.007L1.455 4.571a3.374 3.374 0 0 0-.007 4.768l3.189 3.188.304.304 1.287 1.288 9.849 9.85L3.182 36.862l-2.387 5.57 1.591 1.59L0 46.41 1.591 48l2.386-2.386 1.593 1.591 5.57-2.386 12.894-12.895L36.46 44.353l1.591 1.59 8.151 1.882c1.202.277 1.967-.477 1.687-1.688l-1.88-8.15z" fill="#8C43FF" fill-rule="evenodd"/></svg>