<svg width="50" height="48" viewBox="0 0 50 48" xmlns="http://www.w3.org/2000/svg"><title>FRONT END</title><path d="M47.619 44.392c0 .666-.54 1.208-1.195 1.208H3.576a1.199 1.199 0 0 1-1.195-1.208V12H47.619V44.392zM3.576 2.4h42.848c.658 0 1.19.534 1.194 1.2l.001.008V9.6H2.381V3.608l.001-.008c.005-.661.54-1.2 1.194-1.2zM50 3.6l.001.008v40.784C50 46.385 48.393 48 46.424 48H3.576C1.601 48 0 46.388 0 44.392V3.608L.001 3.6A3.6 3.6 0 0 1 2.381.222 3.5 3.5 0 0 1 3.576 0h42.848c1.972 0 3.57 1.607 3.575 3.6zM5.952 7.2c.659 0 1.19-.537 1.19-1.2 0-.664-.531-1.2-1.19-1.2-.658 0-1.19.536-1.19 1.2 0 .663.532 1.2 1.19 1.2zm3.572 0c.658 0 1.19-.537 1.19-1.2 0-.664-.532-1.2-1.19-1.2-.659 0-1.19.536-1.19 1.2 0 .663.531 1.2 1.19 1.2zm3.571 0c.659 0 1.19-.537 1.19-1.2 0-.664-.531-1.2-1.19-1.2-.658 0-1.19.536-1.19 1.2 0 .663.532 1.2 1.19 1.2zm22.27 13.551c-.052-.051-.117-.076-.175-.117-.464-.323-1.095-.3-1.508.117a1.205 1.205 0 0 0 0 1.697l1.508 1.52 3.536 3.565-3.536 3.566-1.508 1.52a1.205 1.205 0 0 0 0 1.697c.413.415 1.044.442 1.508.117.058-.04.123-.064.175-.117l5.887-5.935a1.205 1.205 0 0 0 0-1.697l-5.887-5.933zm-6.884-3.87c-.384-.15-.785-.069-1.1.15-.188.132-.354.3-.443.531l-.17.438-4.017 10.347-3.621 9.33a1.2 1.2 0 0 0 .675 1.555 1.189 1.189 0 0 0 1.542-.68l1.404-3.619 4.63-11.926 1.774-4.57c.055-.144.076-.292.076-.437 0-.48-.28-.933-.75-1.118zm-12.03 5.567a1.205 1.205 0 0 0 0-1.697 1.182 1.182 0 0 0-1.684 0l-1.671 1.685-4.216 4.248a1.205 1.205 0 0 0 0 1.697l4.216 4.25 1.671 1.685a1.185 1.185 0 0 0 1.683 0c.466-.469.466-1.23 0-1.697l-3.354-3.382-1.69-1.704 1.69-1.703 3.354-3.382z" fill="#8C43FF" fill-rule="evenodd"/></svg>