<svg width="40" height="48" viewBox="0 0 40 48" xmlns="http://www.w3.org/2000/svg"><title>BOOK</title><path d="M37.2 36H4.796c-.874 0-1.687.254-2.396.668V4.8c0-1.322 1.078-2.4 2.396-2.4H37.2V36zm0 4.8H8.4v2.4h28.8v2.4H4.796a2.391 2.391 0 0 1-2.088-1.247 2.41 2.41 0 0 1-.308-1.165v-2.376A2.41 2.41 0 0 1 4.796 38.4H37.2v2.4zm0-40.8h2.4v48H4.796c-1.915 0-3.554-1.128-4.322-2.756A4.735 4.735 0 0 1 0 43.2V4.8C0 2.15 2.158 0 4.796 0H37.2zM14.4 15.6l6-3.6 6 3.6v7.2l-6 3.6-6-3.6v-7.2zm-1.235 9.258l6 3.6a2.4 2.4 0 0 0 2.47 0l6-3.6A2.401 2.401 0 0 0 28.8 22.8v-7.2c0-.842-.443-1.625-1.165-2.058l-6-3.6a2.4 2.4 0 0 0-2.47 0l-6 3.6A2.401 2.401 0 0 0 12 15.6v7.2c0 .842.443 1.625 1.165 2.058z" fill="#8C43FF" fill-rule="evenodd"/></svg>