<svg width="200" height="50" viewBox="0 0 200 50" xmlns="http://www.w3.org/2000/svg"><title>Group 25</title><g fill="none" fill-rule="evenodd"><path fill="#FFF" d="M0 0h200v50H0z"/><path d="M68.223 10.41C63.827 9.5 58.02 9 51.87 9c-6.15 0-11.957.5-16.352 1.41-5.812 1.2-8.518 3-8.518 5.661 0 .196.016.387.043.536C27.447 20.847 30.543 42 51.87 42c21.32 0 24.423-21.153 24.823-25.357.031-.187.047-.378.047-.572 0-2.66-2.706-4.46-8.517-5.661zM51.87 20.13c-13.529 0-21.836-2.364-21.836-4.059 0-1.695 8.307-4.058 21.836-4.058 13.53 0 21.835 2.364 21.835 4.058 0 1.695-8.306 4.059-21.835 4.059z" fill="#FAD46B"/><path d="M93.758 34.6c-1.323 0-2.067-.739-2.067-2.08V18.398c0-1.314.744-2.053 2.067-2.053h7.608c3.5 0 5.293 2.217 5.293 4.653 0 2.299-1.434 3.831-3.17 4.187 1.957.301 3.528 2.19 3.528 4.489 0 2.737-1.847 4.926-5.348 4.926h-7.91zm1.847-10.92h4.907c1.323 0 2.15-.848 2.15-2.025 0-1.122-.827-1.998-2.15-1.998h-4.907v4.023zm0 7.609h5.044c1.489 0 2.371-.849 2.371-2.163 0-1.15-.827-2.134-2.37-2.134h-5.045v4.297zm31.32.848c.083.192.166.438.166.684 0 1.095-.91 1.97-2.013 1.97-.854 0-1.598-.547-1.846-1.313l-.745-2.135h-8.269l-.744 2.135c-.248.766-1.02 1.314-1.875 1.314a1.97 1.97 0 0 1-1.984-1.97c0-.247.055-.493.138-.685l5.375-13.794a3.427 3.427 0 0 1 3.225-2.19c1.46 0 2.729.904 3.225 2.19l5.347 13.794zm-11.494-4.16h5.844l-2.922-8.266-2.922 8.266zm14.809 5.118c1.654 1.15 3.776 1.834 6.477 1.834 4.962 0 7.36-2.518 7.36-5.857 0-4.051-3.859-4.954-6.89-5.638-2.123-.493-3.667-.876-3.667-2.108 0-1.095.937-1.86 2.977-1.86 1.296 0 2.729.382 4.162 1.176.248.164.58.274.937.274.965 0 1.792-.821 1.792-1.807a1.76 1.76 0 0 0-.91-1.532c-1.764-1.013-3.61-1.506-5.705-1.506-4.604 0-7.25 2.464-7.25 5.502 0 4.078 3.86 4.899 6.864 5.583 2.122.492 3.72.958 3.72 2.326 0 1.04-1.047 2.053-3.197 2.053-1.846 0-3.362-.575-4.63-1.45a1.763 1.763 0 0 0-1.048-.33c-.992 0-1.82.822-1.82 1.835 0 .63.332 1.176.828 1.505zm19.33 1.697c1.074 0 1.929-.903 1.929-1.943V18.097a1.934 1.934 0 0 0-1.93-1.943c-1.102 0-1.984.875-1.984 1.943v14.752c0 1.04.882 1.943 1.984 1.943zm20.487 0a2.391 2.391 0 0 0 2.398-2.381V18.097a1.958 1.958 0 0 0-1.957-1.943 1.94 1.94 0 0 0-1.957 1.943v10.071l-7.884-10.947a2.565 2.565 0 0 0-2.095-1.067A2.55 2.55 0 0 0 156 18.699v14.15c0 1.04.882 1.943 1.984 1.943 1.075 0 1.93-.903 1.93-1.943v-10.51l8.187 11.44a2.372 2.372 0 0 0 1.957 1.013z" fill="#2B3137"/></g></svg>