<svg width="235" height="80" viewBox="0 0 235 80" xmlns="http://www.w3.org/2000/svg"><title>Group 13</title><g fill="none" fill-rule="evenodd"><path fill="#FFF" d="M0 0h235v80H0z"/><g fill="#313E48" fill-rule="nonzero"><path d="M62.68 40.773l-2.93 1.758 1.969 1.172a.984.984 0 0 1 .492.844c0 .351-.188.68-.492.844l-10.617 6.328c-.164.093-.329.14-.516.14a.943.943 0 0 1-.586-.187l-5.414-3.89a1.011 1.011 0 0 1-.422-.798v-4.898c0-.328.164-.61.422-.797L50 37.4a.904.904 0 0 1 .586-.188c.187 0 .352.047.516.14L55.532 40l-4.43 2.648c-.164.094-.329.141-.516.141a.943.943 0 0 1-.586-.187l-2.484-1.782-2.016 1.43v.82l2.766 1.97c.703.491 1.5.75 2.32.75.703 0 1.406-.188 2.039-.563l10.594-6.329a4.014 4.014 0 0 0 1.945-3.421c0-1.407-.75-2.72-1.945-3.422l-10.594-6.328a3.97 3.97 0 0 0-4.36.188l-5.39 3.843a3.977 3.977 0 0 0-1.664 3.234v4.899c0 .773.281 1.453.68 2.086-.399.632-.68 1.336-.68 2.086v4.898c0 1.289.61 2.484 1.664 3.234l5.414 3.89c.703.493 1.5.75 2.32.75.703 0 1.407-.187 2.04-.562l10.593-6.328a4.014 4.014 0 0 0 1.946-3.422c0-1.406-.75-2.718-1.946-3.421l-.562-.329zm-18.07-8.578l5.413-3.89a.904.904 0 0 1 .586-.188c.188 0 .352.047.516.14l10.594 6.329a.984.984 0 0 1 .492.844c0 .351-.188.68-.492.843L58.46 38.22l-5.813-3.469a3.97 3.97 0 0 0-4.36.188l-4.077 2.953v-4.875a1 1 0 0 1 .398-.82zM80.258 49.82V29.758h8.156c1.617 0 3 .539 4.148 1.617 1.149 1.078 1.711 2.297 1.711 3.703 0 .797-.164 1.547-.492 2.203-.328.68-.656 1.149-.984 1.407l-.516.398c.07.047.188.094.305.187.14.094.375.282.727.586.351.305.656.61.914.961.257.352.492.82.703 1.383.21.563.328 1.149.328 1.758 0 1.617-.61 2.977-1.852 4.148-1.219 1.149-2.765 1.735-4.594 1.735h-8.554v-.024zm3.14-17.343v5.437h5.016c.773 0 1.43-.258 1.945-.773.516-.516.774-1.172.774-1.946 0-.773-.258-1.43-.774-1.945-.515-.516-1.171-.773-1.945-.773h-5.016zm5.461 14.601c.938 0 1.711-.305 2.344-.937.633-.633.938-1.407.938-2.344 0-.938-.305-1.711-.938-2.344-.633-.633-1.406-.937-2.367-.937h-5.438v6.586h5.461v-.024zM105.266 38.36c-1.102 0-1.97.35-2.602 1.054-.656.703-.984 1.688-.984 2.953v7.453h-2.86V36.062h2.86v1.43l.187-.187c.094-.094.258-.211.54-.422.28-.188.562-.352.866-.516.305-.164.68-.304 1.149-.422a5.835 5.835 0 0 1 1.43-.187h.703v2.719a7.315 7.315 0 0 0-1.29-.118zM111.617 32.992c-.328.328-.75.492-1.242.492s-.914-.164-1.242-.492c-.328-.328-.492-.726-.492-1.242s.164-.914.492-1.242c.328-.328.726-.492 1.242-.492.492 0 .914.164 1.242.492.328.328.492.726.492 1.242s-.164.914-.492 1.242zm.188 16.828h-2.883V36.062h2.883V49.82zM117.664 31.469h2.578v4.593h2.86v2.579h-2.86v7.125c0 .515.164.937.492 1.265.329.328.727.492 1.243.492.21 0 .445-.023.68-.07.234-.047.421-.094.562-.164l.21-.047v2.578c-.562.188-1.242.282-2.015.282-2.672 0-4.008-1.43-4.008-4.29v-7.171h-2.578v-2.578h1.43c.96 0 1.43-.586 1.43-1.711l-.024-2.883zM127.648 43.938c.141.96.633 1.804 1.43 2.53.797.704 1.758 1.055 2.883 1.055.797 0 1.547-.187 2.25-.539.703-.351 1.195-.726 1.476-1.054l.446-.54 1.851 1.852c-.07.07-.14.188-.257.305-.118.117-.375.351-.75.68-.375.328-.797.609-1.22.843-.421.235-.984.47-1.663.68-.68.21-1.383.328-2.133.328-1.945 0-3.633-.726-5.04-2.156-1.405-1.43-2.132-3.14-2.132-5.156 0-1.922.68-3.586 2.063-4.97 1.382-1.382 3.023-2.062 4.945-2.062 1.922 0 3.539.633 4.805 1.922 1.289 1.29 1.921 2.883 1.921 4.828l-.164 1.43h-10.71v.023zm1.57-4.805c-.702.61-1.171 1.406-1.429 2.367h7.969c-.164-.96-.61-1.758-1.313-2.367-.703-.61-1.57-.914-2.625-.914-1.03 0-1.898.304-2.601.914zM151.836 36.063l3.14 9.468 3.165-9.468h3.023L156.43 49.82h-2.72l-3.14-9.164-3.14 9.164h-2.72l-4.733-13.758h2.976l3.164 9.47 3.14-9.47h2.579zM165.36 43.938c.14.96.632 1.804 1.43 2.53.796.704 1.757 1.055 2.882 1.055.797 0 1.547-.187 2.25-.539.703-.351 1.195-.726 1.476-1.054l.446-.54 1.851 1.852c-.07.07-.14.188-.257.305-.118.14-.375.351-.75.68-.375.328-.797.609-1.22.843-.421.235-.984.47-1.663.68-.68.21-1.383.328-2.133.328-1.945 0-3.633-.726-5.04-2.156-1.405-1.43-2.132-3.14-2.132-5.156 0-1.922.68-3.586 2.063-4.97 1.382-1.382 3.023-2.062 4.945-2.062 1.922 0 3.539.633 4.804 1.922 1.29 1.29 1.922 2.883 1.922 4.828l-.164 1.43h-10.71v.023zm1.546-4.805c-.703.61-1.172 1.406-1.43 2.367h7.97c-.165-.96-.61-1.758-1.313-2.367-.703-.61-1.57-.914-2.625-.914-1.008 0-1.899.304-2.602.914zM191.68 37.867c1.336 1.406 1.992 3.094 1.992 5.086 0 1.992-.656 3.68-2.016 5.063-1.336 1.406-2.906 2.086-4.734 2.086-.516 0-1.008-.07-1.5-.188a5.817 5.817 0 0 1-1.242-.445 7.8 7.8 0 0 1-.914-.563c-.258-.187-.446-.351-.563-.445l-.21-.211v1.594h-2.86V29.758h2.86v7.898c.116-.117.304-.304.562-.515.234-.211.75-.493 1.523-.844a5.678 5.678 0 0 1 2.367-.516c1.828-.023 3.422.68 4.735 2.086zm-2.11 8.297c.844-.89 1.266-1.969 1.266-3.234 0-1.266-.422-2.344-1.266-3.235-.843-.89-1.804-1.336-2.882-1.336-1.079 0-2.063.446-2.907 1.336-.844.89-1.265 1.97-1.265 3.235s.422 2.343 1.265 3.234c.844.89 1.805 1.336 2.906 1.336 1.079.023 2.04-.422 2.883-1.336z"/></g></g></svg>