<svg width="235" height="80" viewBox="0 0 235 80" xmlns="http://www.w3.org/2000/svg" xmlns:xlink="http://www.w3.org/1999/xlink"><title>Group 9</title><defs><path d="M13.624.135h2.036V4.62h5.301V.135h2.036v10.5H20.96v-4.26H15.66v4.26h-2.036V.135zm34.871.57a5.288 5.288 0 0 1 2.043 1.935c.497.82.745 1.73.745 2.73s-.248 1.912-.745 2.737a5.38 5.38 0 0 1-2.043 1.958c-.866.48-1.825.72-2.879.72-1.053 0-2.012-.24-2.878-.72a5.38 5.38 0 0 1-2.043-1.957 5.21 5.21 0 0 1-.745-2.738c0-1 .248-1.91.745-2.73A5.288 5.288 0 0 1 42.738.705C43.604.235 44.563 0 45.616 0c1.054 0 2.013.235 2.88.705zM43.84 2.272a3.535 3.535 0 0 0-1.321 1.29 3.47 3.47 0 0 0-.487 1.808c0 .66.165 1.265.494 1.815.33.55.77.985 1.322 1.305.552.32 1.152.48 1.8.48.638 0 1.23-.16 1.777-.48.547-.32.98-.755 1.3-1.305.318-.55.478-1.155.478-1.815 0-.66-.16-1.263-.479-1.808a3.51 3.51 0 0 0-1.299-1.29 3.5 3.5 0 0 0-1.777-.472c-.648 0-1.25.157-1.808.472zM62.577.135h1.975v10.5h-1.929l-5.469-7.23v7.23h-1.99V.135h1.93l5.483 7.245V.135zm6.677 0h2.036v10.5h-2.036V.135zm13.11 2.025a3.632 3.632 0 0 0-1.557-.36c-.658 0-1.261.155-1.808.465-.547.31-.977.737-1.291 1.282a3.528 3.528 0 0 0-.471 1.793c0 .65.157 1.248.47 1.793.315.545.745.974 1.292 1.29.547.315 1.15.472 1.808.472.506 0 1.015-.11 1.527-.33.51-.22.964-.525 1.36-.915l1.2 1.32a6.28 6.28 0 0 1-1.945 1.327 5.54 5.54 0 0 1-2.249.488 5.62 5.62 0 0 1-2.81-.72 5.313 5.313 0 0 1-2.734-4.695c0-1 .248-1.91.744-2.73A5.317 5.317 0 0 1 77.928.705C78.784.235 79.733 0 80.776 0c.76 0 1.504.15 2.234.45.729.3 1.352.715 1.868 1.245l-1.185 1.47a4 4 0 0 0-1.33-1.005zM88.653.135h2.036V8.82h4.587v1.815h-6.623V.135zm10.307 0h7.976V1.89h-5.94v2.595h4.337V6.24h-4.337v2.64h5.94v1.755H98.96V.135zm19.407.667a4.939 4.939 0 0 1 1.975 1.868c.476.8.714 1.705.714 2.715 0 1.01-.24 1.913-.722 2.707a5.035 5.035 0 0 1-1.997 1.868c-.851.45-1.818.675-2.902.675h-4.345V.135h4.421c1.063 0 2.015.222 2.856.667zm-1.056 7.62c.522-.295.93-.705 1.223-1.23.294-.524.44-1.122.44-1.792 0-.67-.151-1.272-.455-1.808a3.206 3.206 0 0 0-1.253-1.244 3.616 3.616 0 0 0-1.785-.443h-2.355v6.96h2.43c.649 0 1.234-.148 1.755-.443zM7.335 2.16a3.632 3.632 0 0 0-1.557-.36c-.659 0-1.261.155-1.808.465-.547.31-.977.737-1.291 1.282a3.528 3.528 0 0 0-.471 1.793c0 .65.157 1.248.47 1.793.315.545.745.974 1.292 1.29.547.315 1.15.472 1.808.472.506 0 1.015-.11 1.526-.33.512-.22.965-.525 1.36-.915l1.2 1.32a6.28 6.28 0 0 1-1.944 1.327 5.54 5.54 0 0 1-2.249.488 5.62 5.62 0 0 1-2.81-.72A5.313 5.313 0 0 1 .127 5.37c0-1 .248-1.91.744-2.73A5.317 5.317 0 0 1 2.899.705C3.755.235 4.704 0 5.747 0c.76 0 1.504.15 2.233.45.73.3 1.352.715 1.869 1.245l-1.185 1.47a4 4 0 0 0-1.33-1.005zm27.481 4.629c.254.109.482.27.684.482.414.436.62 1.06.62 1.872v1.61h-1.954V9.307c0-.567-.495-1.678-2.12-1.744h-2.37v3.098h-2.03V.135h4.347c1.333 0 2.366.316 3.098.948.733.631 1.099 1.523 1.099 2.676 0 1.204-.366 2.138-1.099 2.805a3.33 3.33 0 0 1-.275.225zm-1.164-1.496c.41-.33.614-.822.614-1.474 0-.641-.205-1.122-.614-1.443-.409-.321-.997-.481-1.765-.481h-2.212V5.79h2.212c.768 0 1.356-.166 1.765-.497z" id="a"/><path d="M10.081 24.371a10.727 10.727 0 0 0 6.06 1.879c2.542 0 4.872-.897 6.683-2.387l1.347 1.33a12.386 12.386 0 0 1-8.03 2.932c-2.087 0-4.052-.511-5.775-1.413L8.96 28.084A14.314 14.314 0 0 0 16.14 30c3.592 0 6.872-1.312 9.377-3.478l1.346 1.329a16.197 16.197 0 0 1-10.722 4.024 16.2 16.2 0 0 1-10.105-3.509l4.045-3.995zm-4.794 2.083l-.66.652C1.764 24.23 0 20.287 0 15.937 0 7.136 7.226 0 16.14 0c4.406 0 8.4 1.743 11.312 4.568l-1.343 1.326a14.289 14.289 0 0 0-9.968-4.019c-7.866 0-14.242 6.296-14.242 14.063 0 3.158 1.054 6.072 2.834 8.42l1.365-1.333a12.029 12.029 0 0 1-2.3-7.087C3.798 9.206 9.324 3.75 16.14 3.75c3.356 0 6.4 1.323 8.625 3.47l-3.529 3.484-.5.494-.186-.17a6.67 6.67 0 0 0-4.41-1.653c-3.671 0-6.647 2.938-6.647 6.563 0 3.624 2.976 6.562 6.647 6.562 1.492 0 2.87-.486 3.98-1.306l1.353 1.336a8.577 8.577 0 0 1-5.333 1.845c-4.72 0-8.545-3.778-8.545-8.438S11.42 7.5 16.14 7.5c1.62 0 3.136.446 4.428 1.22l1.384-1.352a10.49 10.49 0 0 0-5.812-1.743c-5.768 0-10.444 4.617-10.444 10.313 0 2.796 1.127 5.333 2.958 7.19l-3.368 3.326zm21.298-10.517c0-2.221-.712-4.28-1.923-5.963l1.36-1.342a12.033 12.033 0 0 1 2.461 7.306 12.05 12.05 0 0 1-2.97 7.929l-1.346-1.33a10.193 10.193 0 0 0 2.418-6.6z" id="c"/></defs><g fill="none" fill-rule="evenodd"><path fill="#FFF" d="M0 0h235v80H0z"/><g transform="translate(75.472 34.5)"><mask id="b" fill="#fff"><use xlink:href="#a"/></mask><path fill="#232323" mask="url(#b)" d="M-1.561 12.452h124.305V-1.667H-1.561z"/></g><g transform="translate(38 24)"><mask id="d" fill="#fff"><use xlink:href="#c"/></mask><path fill="#232323" mask="url(#d)" d="M-1.688 33.542h31.86V-1.667h-31.86z"/></g></g></svg>