<svg width="235" height="80" viewBox="0 0 235 80" xmlns="http://www.w3.org/2000/svg"><title>Group 6</title><g fill="none" fill-rule="evenodd"><path fill="#FFF" d="M0 0h235v80H0z"/><g fill="#263238" fill-rule="nonzero"><path d="M79.14 32.313l-5.7-7.235c-.353-.417-1.021-.765-1.584-.765h-9.114c-.563 0-1.232.313-1.584.765l-5.7 7.235c-.352.417-.493 1.148-.388 1.67l2.041 9.043c.106.452.423 1.113.704 1.496l8.657 10.956c.21.279.528.418.844.418.317 0 .634-.14.845-.418l8.621-10.956c.282-.383.598-1.009.704-1.496l2.04-9.043c.142-.522-.034-1.253-.386-1.67zm-6.897-6.33l5.595 7.06L71.82 36l-8.093-10.226h8.129c.105.035.352.139.387.209zm-15.73 7.687c-.035-.105.035-.383.106-.453l5.56-7.026 8.27 10.435-11.93 5.844-2.006-8.8zm19.53 9.043c-.07.244-.281.696-.422.904l-8.34 10.505-8.129-10.33 18.721-9.149-1.83 8.07zM86.037 31.722h6.475c1.372 0 2.604.174 3.73.487 1.126.348 2.111.834 2.92 1.53.81.696 1.443 1.565 1.9 2.644.458 1.078.67 2.33.67 3.79 0 1.392-.247 2.61-.704 3.618a6.765 6.765 0 0 1-1.936 2.574c-.81.696-1.795 1.218-2.92 1.565-1.127.348-2.358.522-3.695.522h-6.44v-16.73zm6.158 13.948c1.97 0 3.484-.453 4.54-1.392 1.055-.904 1.548-2.26 1.548-4.035 0-1.773-.493-3.165-1.443-4.173-.95-1.01-2.498-1.53-4.645-1.53H89.31v11.13h2.885zM103.033 42.574c0-.87.176-1.67.493-2.435a6 6 0 0 1 1.337-1.982c.563-.557 1.267-1.01 2.076-1.357.81-.348 1.69-.487 2.675-.487.985 0 1.865.174 2.674.487.81.348 1.513.8 2.076 1.357a6.38 6.38 0 0 1 1.337 1.982 6.274 6.274 0 0 1 0 4.87 6.535 6.535 0 0 1-1.337 2.017c-.563.591-1.267 1.044-2.076 1.357-.81.347-1.689.487-2.674.487a7.311 7.311 0 0 1-2.675-.487c-.809-.348-1.513-.8-2.076-1.357a6.535 6.535 0 0 1-1.337-2.017c-.352-.766-.493-1.6-.493-2.435zm6.58 3.722c.599 0 1.092-.105 1.549-.348.422-.244.81-.522 1.09-.905.282-.382.494-.765.634-1.217.141-.452.211-.87.211-1.322 0-.417-.07-.834-.21-1.287a4.028 4.028 0 0 0-.634-1.217 3.008 3.008 0 0 0-1.091-.87c-.422-.243-.95-.347-1.548-.347-.599 0-1.091.104-1.549.347-.422.244-.809.522-1.09.87a3.66 3.66 0 0 0-.634 1.217c-.14.453-.211.87-.211 1.287 0 .453.07.87.211 1.322.14.452.352.835.634 1.217.281.383.633.661 1.09.905.423.243.95.348 1.549.348zM117.672 36.696h2.956l.07 1.321c.141-.174.317-.347.528-.556.211-.209.458-.348.74-.522.28-.139.633-.278.984-.382.388-.105.81-.14 1.302-.14 1.62 0 2.85.557 3.66 1.705.634-.626 1.267-1.044 1.9-1.322a6.552 6.552 0 0 1 2.288-.383c1.548 0 2.744.453 3.554 1.322.81.87 1.231 2.052 1.231 3.548v7.165h-3.061v-7.13c0-.765-.211-1.322-.598-1.74-.387-.417-.915-.625-1.619-.625-.422 0-.81.07-1.161.243a3.399 3.399 0 0 0-.915.66 2.592 2.592 0 0 0-.563 1.01c-.141.382-.211.8-.211 1.217v6.365h-3.027v-7.13c0-.765-.21-1.322-.598-1.74-.387-.417-.915-.625-1.619-.625-.422 0-.809.07-1.16.243a3.399 3.399 0 0 0-.916.66 2.592 2.592 0 0 0-.563 1.01c-.14.382-.21.8-.21 1.217v6.365h-3.062V36.696h.07zM146.422 47.374c-.317.383-.845.73-1.513 1.043-.67.313-1.443.453-2.253.453-.492 0-1.02-.07-1.513-.244a4.256 4.256 0 0 1-1.372-.696 3.25 3.25 0 0 1-.985-1.182 3.697 3.697 0 0 1-.388-1.705c0-.66.141-1.252.388-1.808a3.63 3.63 0 0 1 1.09-1.322 4.74 4.74 0 0 1 1.69-.8 8.703 8.703 0 0 1 2.181-.278h.81c.281 0 .598.035.844.035.317 0 .634.034.95.034v-.278c0-.591-.246-1.043-.739-1.391-.492-.348-1.126-.487-1.9-.487-.88 0-1.548.104-2.076.313a8.33 8.33 0 0 0-1.372.696l-1.408-2.018a8.87 8.87 0 0 1 .845-.522 6.357 6.357 0 0 1 1.09-.487c.423-.139.915-.243 1.443-.347.563-.105 1.197-.14 1.9-.14.775 0 1.478.105 2.112.314.633.208 1.16.486 1.618.87.458.382.81.834 1.056 1.356.246.521.352 1.113.352 1.704v7.93h-2.78l-.07-1.043zm0-4.244c-.317 0-.634-.034-.915-.034-.247 0-.493-.035-.774-.035h-.704c-.986 0-1.69.174-2.076.556-.387.383-.599.8-.599 1.287 0 .487.176.905.563 1.183.388.278.915.417 1.654.417.352 0 .704-.07 1.056-.174.352-.104.633-.278.915-.487.246-.208.457-.452.633-.695.176-.278.247-.557.247-.87V43.13zM151.207 36.696h3.062v11.791h-3.062zM156.134 36.696h2.956l.07 1.321c.14-.174.352-.347.563-.521.211-.174.493-.348.774-.522.317-.174.634-.278 1.02-.383.388-.104.81-.139 1.303-.139 1.513 0 2.71.452 3.484 1.322.809.87 1.196 2.052 1.196 3.548v7.165h-3.061v-7.165c0-.765-.212-1.322-.634-1.74-.422-.417-.985-.625-1.654-.625-.422 0-.81.07-1.161.243a3.571 3.571 0 0 0-.95.66 3.208 3.208 0 0 0-.598 1.01c-.141.382-.211.8-.211 1.217v6.365h-3.062V36.696h-.035zM169.26 48.452c.387-1.182.844-2.47 1.407-3.86a85.9 85.9 0 0 1 1.724-4c.599-1.288 1.162-2.47 1.725-3.514a35.241 35.241 0 0 1 1.372-2.435h-7.918v-2.956h11.26v2.817c-.245.383-.527.87-.879 1.53-.352.627-.704 1.357-1.09 2.157-.388.8-.775 1.67-1.162 2.574-.387.905-.774 1.844-1.161 2.748-.352.904-.704 1.809-1.02 2.644-.317.834-.564 1.6-.74 2.295h-3.519zM151.383 34.26c-.387-.382-.563-.8-.563-1.356 0-.521.176-.974.563-1.356.387-.383.81-.557 1.373-.557.528 0 .985.174 1.372.557.387.382.563.8.563 1.356 0 .522-.176.974-.563 1.357-.387.382-.81.556-1.372.556a1.87 1.87 0 0 1-1.373-.556z"/></g></g></svg>