<svg width="235" height="80" viewBox="0 0 235 80" xmlns="http://www.w3.org/2000/svg"><title>Group 6</title><g fill="none" fill-rule="evenodd"><path fill="#FFF" d="M0 0h235v80H0z"/><path d="M120.378 39.725c-1.216 0-2.093.4-2.982.805v9.195c.851.082 1.34.082 2.147.082 2.92 0 3.32-1.337 3.32-3.204V42.21c0-1.378-.457-2.486-2.485-2.486zm-19.39-.502c-2.025 0-2.488 1.112-2.488 2.49v.774h4.974v-.774c0-1.378-.463-2.49-2.486-2.49zm-37.561 9.571c0 1.09.514 1.656 1.649 1.656 1.217 0 1.937-.397 2.826-.805v-2.181H65.24c-1.26 0-1.814.234-1.814 1.33zm75.812-9.069c-2.029 0-2.732 1.107-2.732 2.486v5.031c0 1.382.703 2.493 2.732 2.493 2.024 0 2.732-1.11 2.732-2.493v-5.03c0-1.38-.709-2.487-2.732-2.487zm-85.756 14.71H47.52V40h-2.98v-4.975h2.98v-2.988c0-4.058 1.683-6.471 6.463-6.471h3.981v4.975h-2.488c-1.861 0-1.984.696-1.984 1.993l-.008 2.49h4.507l-.527 4.975h-3.98v14.437zm20.385.038h-4.971l-.215-1.257a11.394 11.394 0 0 1-5.632 1.46c-3.646 0-5.586-2.435-5.586-5.803 0-3.973 2.264-5.392 6.315-5.392h4.123v-.859c0-2.028-.233-2.623-3.352-2.623h-5.1l.498-4.975h5.575c6.844 0 8.345 2.162 8.345 7.638v11.811zm16.904-14.11c-3.093-.53-3.982-.647-5.47-.647-2.674 0-3.482.59-3.482 2.86v4.295c0 2.27.808 2.863 3.482 2.863 1.488 0 2.377-.118 5.47-.65v4.852c-2.71.607-4.475.767-5.967.767-6.403 0-8.948-3.368-8.948-8.233v-3.484c0-4.87 2.545-8.243 8.948-8.243 1.492 0 3.257.16 5.967.77v4.85zm18.665 6.107H98.5v.401c0 2.27.808 2.863 3.481 2.863 2.403 0 3.87-.118 6.957-.65v4.852c-2.978.607-4.53.767-7.451.767-6.404 0-8.951-3.368-8.951-8.233v-3.984c0-4.257 1.89-7.743 8.452-7.743s8.45 3.446 8.45 7.743v3.984zm19.39.092c0 4.702-1.345 8.132-9.485 8.132-2.94 0-4.665-.259-7.91-.758V27.06l5.963-.995v9.402c1.289-.479 2.956-.722 4.474-.722 5.963 0 6.957 2.673 6.957 6.97v4.849zm19.113.103c0 4.056-1.675 7.99-8.681 7.99-7.01 0-8.716-3.934-8.716-7.99v-3.917c0-4.058 1.706-7.993 8.716-7.993 7.006 0 8.68 3.935 8.68 7.993v3.917zm19.1 0c0 4.056-1.676 7.99-8.681 7.99-7.01 0-8.716-3.934-8.716-7.99v-3.917c0-4.058 1.706-7.993 8.716-7.993 7.005 0 8.681 3.935 8.681 7.993v3.917zm19.602 7.77h-6.463l-5.466-9.124v9.124h-5.965V27.058l5.965-.994v17.624l5.466-8.664h6.463l-5.967 9.455 5.967 9.956zm-28.304-14.71c-2.025 0-2.728 1.107-2.728 2.486v5.031c0 1.382.703 2.493 2.728 2.493 2.023 0 2.739-1.11 2.739-2.493v-5.03c0-1.38-.716-2.487-2.739-2.487zm31.708 11.305c1.004 0 1.804.82 1.804 1.842 0 1.038-.8 1.848-1.811 1.848a1.825 1.825 0 0 1-1.823-1.848c0-1.023.816-1.842 1.823-1.842h.007zm-.007.287c-.81 0-1.472.696-1.472 1.555 0 .875.663 1.562 1.48 1.562.816.008 1.468-.687 1.468-1.554 0-.866-.652-1.563-1.469-1.563h-.007zm-.343 2.627h-.328v-2.055c.172-.024.336-.048.581-.048.311 0 .514.066.64.155.12.09.185.229.185.425 0 .271-.179.434-.4.5v.016c.18.033.302.195.344.498.047.32.097.441.13.508h-.344c-.048-.067-.098-.254-.139-.525-.048-.261-.18-.36-.442-.36h-.227v.886zm0-1.137h.237c.269 0 .497-.1.497-.354 0-.18-.13-.359-.497-.359-.107 0-.181.008-.237.016v.697z" fill="#3B5998" fill-rule="nonzero"/></g></svg>