<svg width="176" height="46" viewBox="0 0 176 46" xmlns="http://www.w3.org/2000/svg"><title>Group 93</title><g fill="none" fill-rule="evenodd"><path d="M3.194 16.39C5.46 6.978 13.715 0 23.75 0s18.29 6.978 20.556 16.39c1.874 0 3.194 0 3.194 4.707 0 4.706-1.32 4.706-3.194 4.706a22.34 22.34 0 0 1-4.37 8.763v4.382s-3.237 6.49-16.186 6.49c-12.948 0-16.185-6.49-16.185-6.49v-4.382c-2.105-2.434-3.561-5.518-4.37-8.763-1.874 0-3.195 0-3.195-4.706 0-4.707 1.32-4.707 3.194-4.707zm20.702 17.996c16.307 0 16.788-8.888 16.788-13.387 0-4.5-1.63-13.866-16.788-13.866C8.738 7.133 6.87 16.132 6.87 21c0 3.906.72 10.163 9.146 12.482.827.228-3.095 4.409-2.098 4.555.548.08 2.934-.656 4.868-1.704 1.523-.825 3.161-1.99 3.161-1.99s1.272.043 1.95.043z" fill="#8147FF"/><g fill="#092131"><path d="M61 13.056c0-.286.098-.528.296-.725a.975.975 0 0 1 .726-.296c.286 0 .528.095.727.296a.971.971 0 0 1 .298.725v6.933a7.929 7.929 0 0 1 2.61-1.933c1.01-.471 2.112-.707 3.299-.707 1.101 0 2.137.21 3.102.63a8.024 8.024 0 0 1 2.528 1.696 8.07 8.07 0 0 1 1.697 2.526c.42.964.627 2.003.627 3.104v7.065a1.012 1.012 0 0 1-1.023 1.024 1.015 1.015 0 0 1-1.024-1.024v-7.065c0-.812-.152-1.58-.459-2.295a6.076 6.076 0 0 0-1.272-1.884 6.015 6.015 0 0 0-1.88-1.266 5.707 5.707 0 0 0-2.296-.466c-.795 0-1.54.15-2.245.448a6.047 6.047 0 0 0-1.849 1.204 6.157 6.157 0 0 0-1.29 1.8 5.47 5.47 0 0 0-.525 2.227v7.297a.986.986 0 0 1-.298.728c-.2.192-.441.296-.727.296A1.01 1.01 0 0 1 61 32.37V13.056M81.083 25.404c0 .81.153 1.579.46 2.293a5.987 5.987 0 0 0 3.15 3.155 5.78 5.78 0 0 0 2.298.464c.815 0 1.586-.158 2.31-.464a5.907 5.907 0 0 0 1.9-1.274 5.97 5.97 0 0 0 1.272-1.881 5.723 5.723 0 0 0 .461-2.293c0-.815-.152-1.583-.46-2.309a5.926 5.926 0 0 0-1.273-1.901 5.976 5.976 0 0 0-1.9-1.268 5.765 5.765 0 0 0-2.31-.465c-.815 0-1.58.152-2.298.465a6.058 6.058 0 0 0-1.88 1.268 5.974 5.974 0 0 0-1.73 4.21zm5.975-8.023c1.057 0 2.063.216 3.021.646a8.248 8.248 0 0 1 2.523 1.734 8.314 8.314 0 0 1 1.736 2.54c.428.967.643 2.005.643 3.103a7.57 7.57 0 0 1-.627 3.052 8.378 8.378 0 0 1-1.702 2.529 7.885 7.885 0 0 1-5.661 2.342 7.988 7.988 0 0 1-5.61-2.244 7.648 7.648 0 0 1-1.716-2.513c-.42-.968-.632-2.022-.632-3.166 0-1.098.204-2.131.613-3.087a7.845 7.845 0 0 1 1.684-2.509 8.163 8.163 0 0 1 2.542-1.716 8.763 8.763 0 0 1 3.186-.71zM97.028 18.337c0-.285.098-.524.298-.725a.977.977 0 0 1 .722-.295c.29 0 .528.1.729.295a1 1 0 0 1 .3.725v7.067c0 .81.15 1.579.462 2.293a5.876 5.876 0 0 0 1.269 1.881 5.898 5.898 0 0 0 1.88 1.274 5.778 5.778 0 0 0 2.296.464c.812 0 1.58-.158 2.292-.464a5.934 5.934 0 0 0 1.884-1.274 6.006 6.006 0 0 0 1.27-1.881c.309-.714.465-1.483.465-2.293v-7.067c0-.285.095-.524.298-.725a.988.988 0 0 1 .726-.295 1.004 1.004 0 0 1 1.021 1.02v7.067a7.8 7.8 0 0 1-.625 3.103 8.099 8.099 0 0 1-1.7 2.522 7.965 7.965 0 0 1-2.53 1.702c-.97.42-2.003.63-3.101.63a7.696 7.696 0 0 1-3.105-.63 7.956 7.956 0 0 1-4.223-4.224 7.696 7.696 0 0 1-.628-3.103v-7.067M115.092 32.34a1.003 1.003 0 0 1 1.022-1.024h8.361c.638 0 1.189-.233 1.65-.695.459-.463.694-1.017.694-1.652 0-.64-.235-1.191-.694-1.651a2.246 2.246 0 0 0-1.65-.692h-5.094a4.51 4.51 0 0 1-1.8-.362 4.64 4.64 0 0 1-2.459-2.461 4.546 4.546 0 0 1-.362-1.799c0-.64.124-1.24.363-1.818a4.511 4.511 0 0 1 .991-1.481 4.584 4.584 0 0 1 1.468-.991 4.442 4.442 0 0 1 1.8-.365h7.966c.284 0 .53.099.725.296.198.2.296.443.296.727a.99.99 0 0 1-.296.726.987.987 0 0 1-.725.296h-7.967a2.604 2.604 0 0 0-1.815.792 2.479 2.479 0 0 0-.757 1.818c0 .704.249 1.308.757 1.817a2.487 2.487 0 0 0 1.815.754h5.094c.593 0 1.165.121 1.7.35a4.376 4.376 0 0 1 2.341 2.347c.236.537.352 1.1.352 1.697 0 .59-.116 1.16-.352 1.702a4.287 4.287 0 0 1-.94 1.4c-.394.4-.86.714-1.4.944a4.267 4.267 0 0 1-1.7.346h-8.362a1.01 1.01 0 0 1-1.022-1.022M144.42 25.404c0 .81.152 1.579.461 2.293a5.98 5.98 0 0 0 3.151 3.155c.717.306 1.48.464 2.295.464s1.585-.158 2.313-.464a5.944 5.944 0 0 0 1.9-1.274 5.96 5.96 0 0 0 1.269-1.881c.31-.714.462-1.483.462-2.293 0-.815-.152-1.583-.462-2.309a5.918 5.918 0 0 0-1.27-1.901 6.014 6.014 0 0 0-1.899-1.268 5.787 5.787 0 0 0-2.313-.465c-.816 0-1.578.152-2.295.465a6.002 6.002 0 0 0-1.88 1.268 5.935 5.935 0 0 0-1.27 1.901 5.827 5.827 0 0 0-.461 2.309zm5.975-8.023a7.29 7.29 0 0 1 3.021.646 8.319 8.319 0 0 1 4.258 4.273c.428.968.645 2.006.645 3.104a7.598 7.598 0 0 1-.626 3.052 8.457 8.457 0 0 1-1.705 2.529 7.856 7.856 0 0 1-2.521 1.713 7.838 7.838 0 0 1-3.14.629 7.96 7.96 0 0 1-3.085-.596A7.774 7.774 0 0 1 143 28.57c-.42-.968-.63-2.022-.63-3.166 0-1.098.206-2.131.613-3.087a7.801 7.801 0 0 1 1.686-2.509 8.147 8.147 0 0 1 2.54-1.716 8.763 8.763 0 0 1 3.186-.71zM160.09 25.272c0-1.1.204-2.134.626-3.101a8.002 8.002 0 0 1 1.699-2.531 8.085 8.085 0 0 1 2.527-1.697c.966-.417 2-.626 3.103-.626 1.101 0 2.136.209 3.103.626.969.416 1.81.985 2.526 1.697a8.203 8.203 0 0 1 1.701 2.53c.412.968.625 2.002.625 3.102v7.067c0 .284-.1.53-.297.725a.997.997 0 0 1-.724.297c-.286 0-.531-.102-.728-.297a.987.987 0 0 1-.297-.725v-7.067c0-.815-.154-1.577-.464-2.294a6.064 6.064 0 0 0-1.268-1.882 6.053 6.053 0 0 0-1.885-1.273 5.751 5.751 0 0 0-2.292-.46c-.817 0-1.582.154-2.294.46a6.018 6.018 0 0 0-1.885 1.273 6.035 6.035 0 0 0-1.27 1.882 5.75 5.75 0 0 0-.46 2.294v7.067a.98.98 0 0 1-.302.725.989.989 0 0 1-.722.297 1.008 1.008 0 0 1-1.022-1.022v-7.067M140.432 31.316h-1.388a5.787 5.787 0 0 1-2.298-.464 5.869 5.869 0 0 1-1.877-1.274 5.957 5.957 0 0 1-1.274-1.881 5.725 5.725 0 0 1-.463-2.293v-6.108h7.3c.35 0 .632-.1.841-.296.207-.2.31-.439.31-.726a.955.955 0 0 0-.31-.725c-.21-.2-.492-.3-.841-.3h-7.3V13.02a.985.985 0 0 0-.296-.723.999.999 0 0 0-.725-.298.993.993 0 0 0-.725.298.976.976 0 0 0-.299.723v12.383c0 1.101.208 2.135.628 3.103.414.97.983 1.81 1.7 2.522a7.922 7.922 0 0 0 2.525 1.702c.97.42 2.002.63 3.104.63h1.388c.35 0 .632-.102.841-.297a.962.962 0 0 0 .31-.725.966.966 0 0 0-.31-.728c-.21-.196-.492-.295-.841-.295"/></g></g></svg>