<svg width="235" height="80" viewBox="0 0 235 80" xmlns="http://www.w3.org/2000/svg"><title>Group 9</title><g fill="none" fill-rule="evenodd"><path fill="#FFF" d="M0 0h235v80H0z"/><g fill="#2164F3" fill-rule="nonzero"><path d="M170.744 49.409a4.666 4.666 0 0 1-1.718 2.023 4.49 4.49 0 0 1-2.382.66h-.014a4.398 4.398 0 0 1-2.382-.69 4.764 4.764 0 0 1-1.717-2.073 8.11 8.11 0 0 1-.627-3.358 8.205 8.205 0 0 1 .594-3.266 4.857 4.857 0 0 1 1.657-2.166 4.053 4.053 0 0 1 2.443-.752h.046c.844 0 1.668.257 2.363.735a5.076 5.076 0 0 1 1.737 2.12 7.798 7.798 0 0 1 .643 3.329c0 1.367-.208 2.527-.643 3.438m5-19.745a2.188 2.188 0 0 0-1.737-.708 2.062 2.062 0 0 0-1.737.771c-.402.5-.61 1.253-.61 2.243v7.158a10.024 10.024 0 0 0-2.877-2.213 7.158 7.158 0 0 0-2.139-.63 10.94 10.94 0 0 0-1.477-.092c-2.46 0-4.452.847-5.979 2.54-1.526 1.695-2.282 4.054-2.267 7.079a13.35 13.35 0 0 0 .577 3.99 9.54 9.54 0 0 0 1.674 3.2 7.817 7.817 0 0 0 2.637 2.104 7.48 7.48 0 0 0 3.282.735 7.89 7.89 0 0 0 1.542-.14c.316-.049.628-.123.933-.22a7.986 7.986 0 0 0 2.106-1.065 12.253 12.253 0 0 0 1.977-1.824v.473c0 .895.225 1.57.66 2.057a2.374 2.374 0 0 0 3.374.03c.433-.47.66-1.16.66-2.087V31.718c0-.894-.211-1.583-.61-2.054M143.823 40.744a3.985 3.985 0 0 1 3.036-1.239h.03a4.146 4.146 0 0 1 3.118 1.223c.79.82 1.252 2.056 1.367 3.72h-8.998c.159-1.642.643-2.873 1.447-3.704m11.57 8.87a1.816 1.816 0 0 0-1.237-.41c-.385-.021-.765.09-1.078.314-.626.566-1.124 1.017-1.51 1.351-.411.332-.841.64-1.288.925-.435.279-.91.49-1.408.629-.53.141-1.078.21-1.628.202a2.658 2.658 0 0 1-.369-.016 4.51 4.51 0 0 1-2.057-.627 4.69 4.69 0 0 1-1.77-1.868 6.518 6.518 0 0 1-.672-2.918h9.69c1.302 0 2.314-.189 3.023-.547.708-.358 1.077-1.16 1.077-2.369a8.082 8.082 0 0 0-4.163-6.969c-1.386-.798-3.038-1.192-4.983-1.192h-.131a11.515 11.515 0 0 0-3.922.692 8.695 8.695 0 0 0-3.104 2.007 8.968 8.968 0 0 0-1.893 3.154 11.865 11.865 0 0 0-.66 3.988c0 3.046.884 5.431 2.654 7.204 1.668 1.68 3.985 2.56 6.925 2.653h.514a11.728 11.728 0 0 0 3.698-.53 9.43 9.43 0 0 0 2.67-1.336 6.438 6.438 0 0 0 1.586-1.695c.31-.451.494-.977.533-1.524a1.409 1.409 0 0 0-.484-1.143M123.972 40.744a3.982 3.982 0 0 1 3.036-1.239h.019a4.155 4.155 0 0 1 3.118 1.223c.801.82 1.253 2.056 1.381 3.72h-9c.177-1.642.658-2.873 1.446-3.704m10.35 8.46a1.707 1.707 0 0 0-1.095.314 51.973 51.973 0 0 1-1.512 1.351c-.405.332-.829.64-1.27.925-.442.28-.924.491-1.43.629a5.864 5.864 0 0 1-1.621.202 2.658 2.658 0 0 1-.37-.016 4.51 4.51 0 0 1-2.06-.627 4.65 4.65 0 0 1-1.75-1.868 6.312 6.312 0 0 1-.692-2.918h9.707c1.288 0 2.3-.189 3.009-.547.708-.358 1.06-1.16 1.06-2.369a7.986 7.986 0 0 0-1.011-3.87 8.098 8.098 0 0 0-3.115-3.093c-1.387-.799-3.058-1.193-4.984-1.193h-.161a11.561 11.561 0 0 0-3.933.698 8.479 8.479 0 0 0-3.088 2.007 8.771 8.771 0 0 0-1.914 3.154 11.865 11.865 0 0 0-.66 3.988c0 3.046.9 5.431 2.67 7.204 1.668 1.679 3.972 2.563 6.911 2.653h.515a11.621 11.621 0 0 0 3.692-.53c.955-.3 1.857-.75 2.67-1.336a6.162 6.162 0 0 0 1.591-1.695c.31-.451.493-.978.53-1.524a1.447 1.447 0 0 0-.464-1.143c-.351-.28-.79-.425-1.24-.41M68.374 52.625v-11.55c.34.03.662.044.998.044a8.678 8.678 0 0 0 4.404-1.176v12.682c0 1.094-.257 1.884-.755 2.418a2.565 2.565 0 0 1-1.961.798 2.508 2.508 0 0 1-1.931-.82c-.495-.533-.755-1.335-.755-2.402M110.083 49.409a4.573 4.573 0 0 1-1.734 2.023 4.425 4.425 0 0 1-2.363.66h-.016a4.39 4.39 0 0 1-2.38-.69 4.68 4.68 0 0 1-1.72-2.073 8.153 8.153 0 0 1-.626-3.358 8.503 8.503 0 0 1 .58-3.266 4.863 4.863 0 0 1 1.67-2.166 4.01 4.01 0 0 1 2.427-.752h.065c.84 0 1.658.256 2.347.735a4.983 4.983 0 0 1 1.75 2.12 8.098 8.098 0 0 1 .643 3.329 8.274 8.274 0 0 1-.643 3.438m4.984-19.745c-.44-.48-1.07-.74-1.72-.708a2.06 2.06 0 0 0-1.737.771c-.416.5-.61 1.253-.61 2.243v7.158a9.988 9.988 0 0 0-2.878-2.213 7.286 7.286 0 0 0-2.136-.63c-.49-.064-.985-.095-1.48-.092-2.46 0-4.468.848-5.978 2.54-1.51 1.694-2.267 4.051-2.267 7.079-.004 1.351.19 2.696.577 3.99a9.573 9.573 0 0 0 1.69 3.2 7.806 7.806 0 0 0 2.634 2.104 7.489 7.489 0 0 0 3.282.735 8.18 8.18 0 0 0 1.545-.14c.316-.05.628-.123.933-.22a7.97 7.97 0 0 0 2.103-1.065 12.855 12.855 0 0 0 1.977-1.824v.473c0 .895.227 1.57.66 2.057a2.358 2.358 0 0 0 3.36.03c.433-.47.64-1.16.64-2.087V31.718c0-.894-.19-1.583-.593-2.054M81.7 38.83v.596a8.872 8.872 0 0 1 2.86-2.481 7.967 7.967 0 0 1 3.586-.785 7.303 7.303 0 0 1 3.503.82 5.29 5.29 0 0 1 2.298 2.353c.335.596.554 1.252.642 1.93.11.87.158 1.745.145 2.62v8.996c0 .974-.24 1.71-.692 2.188-.448.501-1.095.777-1.766.752a2.295 2.295 0 0 1-1.8-.768c-.468-.503-.692-1.239-.692-2.188v-8.025c0-1.597-.225-2.82-.676-3.67-.448-.848-1.367-1.272-2.716-1.272-.864 0-1.707.269-2.412.769a4.507 4.507 0 0 0-1.608 2.136c-.238.722-.353 2.054-.353 4.05v6.042c0 .987-.238 1.71-.705 2.213a2.371 2.371 0 0 1-1.8.735 2.254 2.254 0 0 1-1.77-.768c-.465-.503-.692-1.24-.692-2.188V38.906c0-.924.21-1.614.63-2.054a2.142 2.142 0 0 1 1.687-.692c.411-.01.817.095 1.173.3.368.212.664.528.85.909.219.455.324.956.307 1.46M68.407 24.938c3.342-1.176 7.152-1.113 10.013 1.302.547.487 1.14 1.094 1.384 1.822.29.91-1.012-.096-1.19-.22a12.833 12.833 0 0 0-2.91-1.443c-5.623-1.696-10.94 1.367-14.255 6.12a25.414 25.414 0 0 0-3.022 6.748 3.649 3.649 0 0 1-.29.848c-.145.273-.066-.72-.066-.752.12-.997.314-1.983.58-2.951 1.526-5.18 4.901-9.496 9.756-11.474"/><path d="M72.77 37.793a4.103 4.103 0 0 1-5.47-1.742 3.925 3.925 0 0 1 1.785-5.353 4.103 4.103 0 0 1 5.47 1.742 3.922 3.922 0 0 1-1.786 5.353"/></g></g></svg>