<svg width="235" height="80" viewBox="0 0 235 80" xmlns="http://www.w3.org/2000/svg"><title>Group 17</title><g fill="none" fill-rule="evenodd"><path fill="#FFF" d="M0 0h235v80H0z"/><g fill-rule="nonzero"><path d="M197.038 38.36v-2.797h-3.473v-4.348l-.117.036-3.263.998-.064.02v3.294h-5.149v-1.835c0-.855.191-1.51.568-1.945.374-.431.909-.65 1.59-.65.491 0 1 .115 1.51.343l.128.057v-2.945l-.06-.022c-.477-.172-1.125-.258-1.929-.258-1.013 0-1.933.22-2.736.657a4.677 4.677 0 0 0-1.878 1.857c-.441.793-.665 1.71-.665 2.723v2.018h-2.418v2.797h2.418v11.783h3.472V38.36h5.15v7.488c0 3.083 1.454 4.646 4.322 4.646.472 0 .968-.055 1.475-.163.515-.111.867-.222 1.073-.34l.046-.028V47.14l-.141.094a2.431 2.431 0 0 1-.698.304 2.652 2.652 0 0 1-.686.117c-.672 0-1.17-.181-1.478-.539-.312-.36-.47-.99-.47-1.873V38.36h3.473zm-25.71 9.295c-1.26 0-2.253-.417-2.953-1.24-.705-.828-1.062-2.007-1.062-3.506 0-1.546.357-2.756 1.062-3.597.7-.837 1.685-1.261 2.925-1.261 1.204 0 2.162.405 2.849 1.205.69.805 1.04 2.005 1.04 3.569 0 1.583-.33 2.8-.979 3.613-.644.807-1.614 1.217-2.882 1.217zm.155-12.443c-2.404 0-4.314.704-5.675 2.093-1.361 1.39-2.05 3.313-2.05 5.716 0 2.283.672 4.12 2 5.457 1.33 1.338 3.137 2.016 5.373 2.016 2.33 0 4.202-.714 5.563-2.123 1.36-1.407 2.05-3.312 2.05-5.66 0-2.318-.647-4.167-1.923-5.496-1.277-1.33-3.073-2.003-5.338-2.003zm-13.324 0c-1.635 0-2.988.418-4.021 1.243-1.04.83-1.567 1.917-1.567 3.234 0 .685.114 1.293.338 1.808.225.518.574.973 1.037 1.356.46.379 1.17.776 2.11 1.18.791.326 1.38.6 1.756.818.366.212.626.426.772.634.143.204.215.483.215.827 0 .98-.733 1.456-2.243 1.456-.56 0-1.198-.117-1.898-.348a7.13 7.13 0 0 1-1.943-.985l-.145-.103v3.342l.053.025c.492.227 1.111.418 1.841.568.729.15 1.39.227 1.966.227 1.774 0 3.203-.42 4.246-1.25 1.05-.835 1.581-1.949 1.581-3.311 0-.983-.286-1.826-.85-2.505-.56-.674-1.533-1.293-2.89-1.84-1.081-.434-1.774-.794-2.06-1.07-.275-.268-.415-.646-.415-1.124 0-.424.173-.764.527-1.039.357-.276.855-.417 1.478-.417.578 0 1.17.092 1.759.27.588.18 1.105.42 1.536.713l.142.097v-3.17l-.055-.024c-.398-.17-.922-.317-1.56-.435a9.521 9.521 0 0 0-1.71-.177zm-14.64 12.443c-1.259 0-2.253-.417-2.953-1.24-.704-.828-1.06-2.007-1.06-3.506 0-1.546.356-2.756 1.06-3.597.7-.837 1.685-1.261 2.926-1.261 1.203 0 2.162.405 2.848 1.205.69.805 1.04 2.005 1.04 3.569 0 1.583-.33 2.8-.978 3.613-.645.807-1.614 1.217-2.882 1.217zm.156-12.443c-2.405 0-4.315.704-5.676 2.093-1.36 1.39-2.05 3.313-2.05 5.716 0 2.284.673 4.12 2.002 5.457 1.328 1.338 3.135 2.016 5.372 2.016 2.33 0 4.202-.714 5.563-2.123 1.36-1.407 2.05-3.312 2.05-5.66 0-2.318-.647-4.167-1.924-5.496-1.277-1.33-3.073-2.003-5.337-2.003zm-12.997 2.876v-2.525h-3.43v14.58h3.43v-7.459c0-1.268.288-2.31.855-3.097.56-.777 1.307-1.171 2.218-1.171.31 0 .656.05 1.031.152.372.1.641.208.8.323l.144.104v-3.457l-.055-.024c-.32-.136-.771-.204-1.343-.204-.862 0-1.633.277-2.294.822-.58.48-.999 1.136-1.32 1.956h-.036zm-9.57-2.876c-1.574 0-2.978.337-4.171 1.002a6.755 6.755 0 0 0-2.751 2.828c-.627 1.208-.945 2.618-.945 4.19 0 1.378.309 2.642.918 3.756a6.453 6.453 0 0 0 2.567 2.595c1.091.605 2.352.911 3.75.911 1.629 0 3.02-.326 4.136-.968l.045-.026v-3.142l-.144.105a6.447 6.447 0 0 1-1.678.874c-.606.211-1.159.318-1.643.318-1.346 0-2.426-.42-3.21-1.25-.786-.832-1.185-2-1.185-3.468 0-1.478.416-2.675 1.235-3.559.816-.88 1.899-1.327 3.216-1.327 1.128 0 2.226.381 3.265 1.135l.144.105v-3.31l-.046-.027c-.391-.219-.925-.4-1.587-.537a9.477 9.477 0 0 0-1.917-.205zm-10.229.35h-3.43v14.58h3.43v-14.58zm-1.68-6.21c-.564 0-1.056.192-1.46.573a1.89 1.89 0 0 0-.613 1.43c0 .558.204 1.03.606 1.402.4.37.894.559 1.468.559s1.07-.188 1.474-.558a1.83 1.83 0 0 0 .613-1.403c0-.548-.2-1.023-.596-1.415-.396-.39-.898-.588-1.491-.588zm-8.556 5.135v15.655h3.5V29.798h-4.845L93.141 44.91 87.166 29.8h-5.041v20.343h3.289V34.486h.113l6.31 15.656h2.481l6.212-15.655h.113z" fill="#666"/><path fill="#F45326" d="M54.134 39.134H38V23h16.134z"/><path fill="#81BC0A" d="M71.947 39.134H55.814V23h16.133z"/><path fill="#08A6F0" d="M54.133 56.953H38V40.82h16.133z"/><path fill="#FFBA0F" d="M71.947 56.953H55.814V40.82h16.133z"/></g></g></svg>