<svg width="236" height="80" viewBox="0 0 236 80" xmlns="http://www.w3.org/2000/svg"><title>Group 7</title><g fill="none" fill-rule="evenodd"><path fill="#FFF" d="M0 0h236v80H0z"/><path d="M156.563 53.908c1.51.146 3.02.304 4.525.466l3.325-8.209 3.16 8.966c1.621.204 3.242.417 4.857.64l-5.54-15.724 5.542-13.686h-4.693l-.05.068-2.993 7.393-2.629-7.46h-4.634l4.784 13.578-5.654 13.968zm-3.505-.322V26.361h-4.633v26.843c1.545.12 3.091.247 4.633.382zm-34.8-1.522c1.25 0 2.5.01 3.746.02V42.08h5.566v-4.259h-5.565v-7.196h6.41V26.36h-11.06v25.706c.3 0 .601-.004.903-.003zm-14.384.26c1.544-.055 3.089-.101 4.636-.139V30.627h4.33v-4.264H99.544v4.264h4.331v21.697zm-35.43 2.87v-16.22l5.485 15.566c1.687-.19 3.377-.368 5.07-.536V26.362h-4.444v16.8l-5.92-16.8H64v29.416h.028c1.468-.203 2.942-.396 4.416-.583zm26.633-24.569v-4.263H84.016v27.18c3.68-.317 7.364-.583 11.052-.798v-4.268c-2.138.124-4.272.268-6.401.427v-6.82h5.565v-4.262h-5.565v-7.196h6.41zm42.518 17.647V26.36h-4.652v25.98c3.7.136 7.387.325 11.062.563v-4.27a403.705 403.705 0 0 0-6.41-.361z" fill="#B81D24" fill-rule="nonzero"/></g></svg>