<svg width="236" height="80" viewBox="0 0 236 80" xmlns="http://www.w3.org/2000/svg"><title>Group 7</title><g fill="none" fill-rule="evenodd"><path fill="#FFF" d="M0 0h236v80H0z"/><g fill-rule="nonzero"><g fill="#EC5447"><path d="M64.733 45.698c-.487 0-.913-.324-1.042-.79a6.233 6.233 0 0 1-.224-1.663v-5.16c0-2.029 1.66-3.676 3.697-3.676 1.429 0 2.743.83 3.35 2.115a1.073 1.073 0 0 1-.537 1.39 1.084 1.084 0 0 1-1.42-.477 1.54 1.54 0 0 0-2.929.647v5.161c0 .372.05.74.147 1.093.09.323.023.67-.182.936a1.08 1.08 0 0 1-.86.423"/><path d="M69.782 49.523a6.375 6.375 0 0 1-2.88-.69 1.072 1.072 0 0 1 .162-1.978c.273-.088.57-.063.824.067a4.18 4.18 0 0 0 4.059-.156 4.13 4.13 0 0 0 1.989-3.52v-5.162c0-3.712-3.037-6.732-6.772-6.732-.596 0-1.08-.481-1.08-1.075 0-.593.484-1.074 1.08-1.074 4.924 0 8.932 3.984 8.932 8.88v5.162c-.004 3.466-2.829 6.274-6.314 6.278"/><path d="M69.782 54.727c-6.367 0-11.548-5.152-11.548-11.482v-5.16a8.91 8.91 0 0 1 4.425-7.67 1.086 1.086 0 0 1 1.08-.007 1.073 1.073 0 0 1 .011 1.861 6.756 6.756 0 0 0-3.356 5.815v5.161c0 5.147 4.212 9.333 9.388 9.333a9.337 9.337 0 0 0 4.32-1.044 1.083 1.083 0 0 1 1.457.458 1.071 1.071 0 0 1-.46 1.449 11.632 11.632 0 0 1-5.317 1.285"/><path d="M77.861 50.935c-.418.001-.8-.239-.978-.615a1.068 1.068 0 0 1 .146-1.142 9.312 9.312 0 0 0 2.14-5.933v-5.161c0-4.95-3.13-9.443-7.79-11.18-.002 0-1.202-.397-2.129-.563-.972-.175-2.09-.193-2.101-.193-6.603 0-11.989 5.354-11.989 11.936v5.161c0 .594-.483 1.074-1.08 1.074-.596 0-1.08-.48-1.08-1.074v-5.161C53 30.318 59.354 24 67.164 24c.07 0 1.324.021 2.47.226 1.093.197 2.411.635 2.467.654 5.534 2.062 9.229 7.364 9.229 13.204v5.161c0 2.66-.936 5.251-2.634 7.3-.215.256-.524.39-.835.39M60.621 57c-.218 0-.44-.065-.63-.203a16.785 16.785 0 0 1-6.304-8.811 1.073 1.073 0 0 1 .73-1.335 1.081 1.081 0 0 1 1.342.725 14.62 14.62 0 0 0 5.494 7.678c.379.273.538.758.395 1.2A1.08 1.08 0 0 1 60.62 57"/></g><path d="M94.92 34.93c-1.32 0-2.416.614-3.258 1.824l-.113-1.403a.16.16 0 0 0-.16-.145h-1.602a.16.16 0 0 0-.16.16V46.4a.16.16 0 0 0 .16.16h1.775c.088 0 .16-.072.16-.16v-7.38c.826-1.458 1.768-2.137 2.963-2.137.258 0 .5.024.735.072.114.024.373.11.538.168a.14.14 0 0 0 .182-.104l.351-1.7a.137.137 0 0 0-.096-.16 7.634 7.634 0 0 0-.559-.149 4.996 4.996 0 0 0-.915-.08h-.001zm10.322 4.678h-5.958c.373-1.856 1.63-3 3.316-3 .782 0 1.404.225 1.847.67.507.511.78 1.314.795 2.33zm-2.685-4.679c-3.216 0-5.463 2.402-5.463 5.837 0 4.094 2.388 6.411 6.328 6.029 1.23-.12 2.397-.59 3.399-1.307a.159.159 0 0 0 .04-.217l-.796-1.197a.153.153 0 0 0-.21-.045c-.126.08-.313.2-.397.248-.887.502-1.857.775-2.772.775-2.758 0-3.432-2.103-3.495-3.936h7.753c.125 0 .231-.09.25-.213.016-.103.034-.218.04-.284a6.1 6.1 0 0 0 .038-.597c0-3.189-1.763-5.093-4.715-5.093zm14.685 3.303v5.323c-.927 1.036-1.877 1.518-2.984 1.518-1.884 0-2.965-1.585-2.965-4.35 0-2.561 1.081-4.03 2.965-4.03 1.077 0 2.026.489 2.984 1.54zm0-1.824c-1.03-.967-2.162-1.458-3.37-1.458-2.88 0-4.671 2.204-4.671 5.752 0 3.828 1.738 6.114 4.65 6.114 1.31 0 2.457-.503 3.495-1.53l.133 1.133c.01.08.078.14.159.14h1.54a.159.159 0 0 0 .158-.158V30.346a.159.159 0 0 0-.16-.159h-1.774a.159.159 0 0 0-.16.16v6.061zm9.417 3.57c-1.383-.346-2.576-.646-2.576-1.742 0-.952.799-1.543 2.087-1.543.783 0 1.744.215 2.565.561.121.054.241.111.36.17.124.061.273.013.337-.109l.617-1.171a.25.25 0 0 0-.121-.346 12.63 12.63 0 0 0-.364-.158c-1.112-.447-2.3-.69-3.393-.69-2.489 0-4.16 1.347-4.16 3.348 0 2.435 2.051 2.967 3.86 3.436 1.406.364 2.62.68 2.62 1.797 0 1.342-1.428 1.542-2.277 1.542-1.02 0-2.113-.284-3.052-.786a8.393 8.393 0 0 1-.252-.145.254.254 0 0 0-.346.086l-.69 1.113a.252.252 0 0 0 .087.351c.129.075.281.162.36.203 1.163.604 2.498.92 3.892.92 2.71 0 4.329-1.26 4.329-3.369 0-2.496-2.062-3.013-3.882-3.469zm11.733 4.79a2.626 2.626 0 0 1-1.187.285c-.896 0-1.295-.496-1.295-1.607v-6.563h3.026a.16.16 0 0 0 .16-.157v-1.36a.16.16 0 0 0-.16-.16h-3.026v-3.075a.16.16 0 0 0-.16-.159h-1.776a.159.159 0 0 0-.158.159v3.073h-1.787a.16.16 0 0 0-.16.16v1.36a.16.16 0 0 0 .16.158h1.787v6.583c0 2.254 1.045 3.348 3.195 3.348.701 0 1.465-.204 2.133-.56a6.97 6.97 0 0 0 .403-.25.25.25 0 0 0 .078-.337l-.59-.99a.25.25 0 0 0-.352-.083c-.109.069-.23.144-.291.174v.002zm9.41-3.388v2.457c-.662.815-1.733 1.301-2.88 1.301-1.046 0-1.722-.556-1.722-1.416 0-1.404 1.505-2.172 4.601-2.343v.001zm2.092 2.618v-5.507c0-2.283-1.438-3.54-4.052-3.54-1.093 0-2.402.295-3.672.819-.123.05-.362.159-.541.242a.253.253 0 0 0-.122.34l.601 1.23a.252.252 0 0 0 .341.117c.15-.076.338-.165.429-.208 1.103-.503 2.084-.757 2.923-.757 1.309 0 2 .6 2 1.735v1.466c-4.428.22-6.673 1.536-6.673 3.914 0 1.773 1.371 2.966 3.41 2.966 1.703 0 2.872-.777 3.588-1.494.387.77 1.043 1.15 2.16 1.238.094.01.296.014.462.017a.254.254 0 0 0 .26-.252v-1.112a.254.254 0 0 0-.243-.252 2.403 2.403 0 0 1-.17-.012c-.465-.08-.7-.4-.7-.95zm15.988-9.068c-1.372 0-2.678.578-3.884 1.717-.562-1.14-1.606-1.717-3.11-1.717-1.227 0-2.467.534-3.525 1.51l-.08-1.087a.16.16 0 0 0-.16-.147h-1.646a.16.16 0 0 0-.16.16V46.4a.16.16 0 0 0 .16.16h1.775a.16.16 0 0 0 .16-.16v-8.13c.846-1.032 1.942-1.6 3.092-1.6 1.263 0 1.85.693 1.85 2.182V46.4a.16.16 0 0 0 .16.16h1.796c.088 0 .16-.072.16-.16v-7.423c0-.267-.02-.548-.039-.775.87-.99 1.957-1.533 3.067-1.533 1.245 0 1.85.713 1.85 2.182V46.4a.16.16 0 0 0 .16.158h1.775a.16.16 0 0 0 .16-.158v-7.508c0-2.556-1.266-3.964-3.56-3.964v.001zm14.306 5.794c0 2.764-1.073 4.35-2.941 4.35-1.115 0-2.092-.497-2.987-1.517v-5.326c.96-1.05 1.9-1.54 2.964-1.54 1.883 0 2.963 1.471 2.963 4.033zm-2.558-5.773c-1.246 0-2.432.526-3.448 1.525l-.115-1.128a.16.16 0 0 0-.16-.142h-1.558a.16.16 0 0 0-.161.159v15.289a.16.16 0 0 0 .16.158h1.752a.16.16 0 0 0 .16-.158v-5.291c1.012.962 2.151 1.452 3.392 1.452 2.898 0 4.629-2.285 4.629-6.112 0-3.549-1.782-5.752-4.65-5.752z" fill="#0A273C"/></g></g></svg>