<svg width="236" height="80" viewBox="0 0 236 80" xmlns="http://www.w3.org/2000/svg"><title>Group 98</title><g fill="none" fill-rule="evenodd"><path fill="#FFF" d="M0 0h236v80H0z"/><g transform="translate(30 23)"><path d="M56.673 9.917c1.477 0 3.258.109 4.93.59l-.217 2.274c-1.26-.044-3.106-.066-4.691-.066-1.608 0-2.173.088-2.173 1.378 0 1.049.435 1.333 1.564 1.705l2.846.984c2.39.852 3.171 2.23 3.171 4.438 0 3.432-1.477 4.35-5.56 4.35a24.44 24.44 0 0 1-5.148-.568l.195-2.405c2.78.066 3.997.11 4.953.11 1.737 0 2.215-.24 2.215-1.465 0-1.072-.413-1.334-1.412-1.662l-3.019-1.071c-2.28-.83-3.106-2.186-3.106-4.416 0-3.455 1.585-4.176 5.452-4.176zm17.746 12.768l.153 2.448c-2.042.219-4.627.219-6.951.219-1.999 0-3.28-1.18-3.302-3.039v-9.139c.022-1.858 1.303-3.039 3.302-3.039 2.324 0 4.909 0 6.95.219l-.152 2.47h-5.756c-.717 0-1.02.328-1.02 1.115v2.296h5.973v2.405h-5.974v2.908c0 .809.304 1.137 1.021 1.137h5.756zm14.359 2.601H85.28l-1.13-4.613c-.282-.962-.716-1.268-1.607-1.268H80.22v5.881h-3.258V10.201c1.803-.175 3.02-.197 5.713-.197 3.91 0 5.539 1.006 5.539 4.46 0 2.12-.739 3.476-2.868 3.739v.11c.76.174 1.782.72 2.13 2.273l1.303 4.7zm-8.559-8.46h2.39c1.737 0 2.259-.482 2.259-2.143 0-1.684-.522-2.12-2.26-2.12l-2.389.021v4.241zm16.4-6.822c4.149 0 5.474 1.071 5.474 4.92 0 3.89-1.325 4.94-5.04 4.94-.977 0-1.954-.065-2.823-.175v5.597h-3.302V10.201c1.803-.175 2.998-.197 5.691-.197zm-2.39 7.302h2.325c1.694-.021 2.215-.502 2.215-2.383 0-1.88-.52-2.36-2.215-2.36H94.23v4.743zm23.112-2.973c1.847 0 2.846 1.028 2.846 2.952v8.001h-2.064v-7.39c-.021-1.246-.412-1.77-1.542-1.77-1.02 0-1.716.437-3.28 1.574v7.586h-2.02v-7.39c0-1.311-.5-1.77-1.542-1.77-.978 0-1.694.415-3.28 1.552v7.608h-2.085V14.617h1.737l.109 1.618c1.412-1.224 2.78-1.902 4.257-1.902 1.434 0 2.346.634 2.694 1.858 1.412-1.246 2.759-1.858 4.17-1.858zm10.926 9.445c1.087 0 2.564-.131 3.715-.263l.195 1.4c-1.042.459-2.932.634-4.192.634-3.693 0-5.104-1.509-5.104-5.619 0-4.22 1.477-5.597 4.909-5.597 3.301 0 4.648 1.246 4.648 3.586 0 1.923-.804 3.06-2.585 3.06h-4.757c.217 2.318 1.13 2.799 3.171 2.799zm-.369-7.652c-2.063 0-2.758.678-2.845 3.214h4.235c.891 0 1.043-.766 1.043-1.421-.022-1.29-.63-1.793-2.433-1.793zm10.123.131v5.947c0 1.005.369 1.355 1.39 1.355h1.542l.239 1.64c-.695.197-1.933.284-2.498.284-1.803 0-2.759-1.071-2.759-2.995v-6.231h-1.933v-1.53l1.933-.11v-3.126h2.086v3.126h3.28v1.64h-3.28zm12.294-1.924l-.239 1.99h-.652c-1.13 0-2.172.459-3.8 1.224v7.74h-2.108v-10.67h1.63l.216 1.64c1.5-1.203 3.041-1.924 4.453-1.924h.5zm2.607-4.263h.999c.412 0 .608.24.608.612v1.224c0 .416-.196.634-.608.634h-1c-.412 0-.608-.218-.608-.634v-1.224c0-.372.196-.612.609-.612zm1.542 15.216h-2.085V14.617h2.085v10.67zm7.906-10.953c.978 0 2.455.131 3.52.547l-.283 1.355a48.443 48.443 0 0 0-2.867-.11c-2.411 0-3.237.853-3.237 3.827 0 2.973.826 3.826 3.237 3.826.63 0 2.02-.044 3.128-.24l.195 1.42c-1.064.394-2.433.59-3.693.59-3.714 0-5.06-1.486-5.06-5.596 0-4.132 1.368-5.619 5.06-5.619zm9.71 0c1.39.022 3.215.153 4.518.372l-.174 1.53c-1.325-.044-2.693-.11-4.018-.11-1.89 0-2.476.023-2.476 1.181 0 1.028.5 1.115 1.498 1.4l2.998.743c1.716.46 2.476 1.137 2.476 2.995 0 2.624-1.433 3.083-4.605 3.083-.717 0-2.367-.022-4.214-.306l.152-1.574c.978.087 2.26.109 3.628.109 2.324 0 2.997-.219 2.997-1.312 0-.984-.608-1.093-1.607-1.355l-2.954-.744c-1.76-.459-2.411-1.29-2.411-3.039 0-2.426 1.238-2.995 4.192-2.973z" fill="#383C47"/><path d="M3.805 1.93a1.808 1.808 0 0 1-1.802 1.814A1.808 1.808 0 0 1 .2 1.93C.2.93 1.008.117 2.003.117S3.805.929 3.805 1.93z" stroke="#35C2FF" stroke-width="1.455"/><ellipse stroke="#35C2FF" stroke-width="1.455" cx="10.842" cy="7.114" rx="1.802" ry="1.814"/><ellipse stroke="#35C2FF" stroke-width="1.455" cx="19.769" cy="1.931" rx="1.802" ry="1.814"/><path d="M30.41 7.114a1.808 1.808 0 0 1-1.801 1.813 1.808 1.808 0 0 1-1.803-1.813c0-1.002.807-1.814 1.803-1.814.995 0 1.802.812 1.802 1.814z" stroke="#35C2FF" stroke-width="1.455"/><ellipse stroke="#35C2FF" stroke-width="1.455" cx="10.843" cy="17.393" rx="1.802" ry="1.814"/><ellipse stroke="#35C2FF" stroke-width="1.455" cx="1.917" cy="22.576" rx="1.802" ry="1.814"/><ellipse stroke="#35C2FF" stroke-width="1.455" cx="10.842" cy="27.673" rx="1.802" ry="1.814"/><ellipse stroke="#35C2FF" stroke-width="1.455" cx="19.768" cy="22.576" rx="1.802" ry="1.814"/><ellipse stroke="#35C2FF" stroke-width="1.455" cx="19.768" cy="33.029" rx="1.802" ry="1.814"/><ellipse stroke="#35C2FF" stroke-width="1.455" cx="28.78" cy="27.846" rx="1.802" ry="1.814"/><ellipse stroke="#35C2FF" stroke-width="1.455" cx="37.62" cy="32.942" rx="1.802" ry="1.814"/><ellipse stroke="#35C2FF" stroke-width="1.455" cx="28.694" cy="17.48" rx="1.802" ry="1.814"/><ellipse stroke="#35C2FF" stroke-width="1.455" cx="19.768" cy="12.297" rx="1.802" ry="1.814"/><ellipse stroke="#35C2FF" stroke-width="1.455" cx="37.62" cy="12.211" rx="1.802" ry="1.814"/><path d="M3.033 2.622l6.265 3.714M12.216 6.077l6.008-3.455M21.142 32.078l6.007-3.455M21.57 2.967l5.494 3.283M30.325 28.45l5.493 3.283M36.075 13.16l-5.922 3.37M21.227 13.16l5.837 3.37M12.13 28.536l5.836 3.37M10.843 8.927v6.306M28.694 19.812v6.306M3.462 21.54l5.664-3.197M12.56 18.43l5.32 3.11" stroke="#35C2FF" stroke-width="1.455"/></g></g></svg>