<svg width="236" height="80" viewBox="0 0 236 80" xmlns="http://www.w3.org/2000/svg"><title>Group 8</title><g fill="none" fill-rule="evenodd"><path fill="#FFF" d="M0 0h236v80H0z"/><g fill="#000" fill-rule="nonzero"><path d="M184.57 50.23a2.074 2.074 0 1 0 0 4.148 2.07 2.07 0 0 0 2.07-2.078 2.068 2.068 0 0 0-2.07-2.07zm0 3.899a1.822 1.822 0 0 1-1.823-1.83 1.82 1.82 0 0 1 1.824-1.818 1.818 1.818 0 0 1 1.818 1.819 1.82 1.82 0 0 1-1.818 1.829z"/><path d="M185.635 51.756c0-.195-.087-.401-.26-.5-.174-.103-.37-.113-.565-.113h-1.01v2.318h.283v-1.069h.521l.662 1.07h.337l-.7-1.07c.413-.012.732-.18.732-.636zm-1.118.413h-.435v-.82h.662c.288 0 .604.044.604.402 0 .472-.506.418-.83.418zM172.415 40.55l4.24-4.528c.245-.332.368-.565.368-.764 0-.332-.286-.466-1.185-.466h-1.07v-2.858h11.58v2.858h-1.522c-1.757 0-2.083.266-4.535 3.357l-6.708 7.243v4.42c0 1.132.571 1.53 2.206 1.53h2.532V54.1h-16.218v-2.757h2.532c1.633 0 2.206-.398 2.206-1.53v-4.42l-7.9-8.74c-1.306-1.527-1.126-1.86-4.76-1.86v-2.858h14.667v2.858h-1.044c-1.063 0-1.513.2-1.513.598 0 .333.326.599.53.864l3.998 4.357c.475.493 1.054.557 1.596-.061zm-98.413-8.616h3.538v7.975h-3.267c-.29-1.594-1.288-2.215-2.197-3.051-1.642-1.508-5.197-2.764-8.187-2.764-3.858 0-7.115 1.197-7.115 2.957 0 4.885 22.069.997 22.069 10.235 0 4.818-4.727 7.51-13.217 7.51-2.939 0-7.386-.912-10.01-2.305-.823-.475-1.172.45-1.326 1.608h-3.627v-8.242h3.281c.724 2.094 1.72 2.525 2.638 3.357 1.591 1.462 5.379 2.526 8.852 2.492 5.237-.052 7.038-1.196 7.038-2.858 0-1.661-1.781-2.06-7.52-2.957l-4.873-.798c-5.499-.831-9.502-2.06-9.502-6.447 0-4.552 5.064-7.41 13.072-7.41 3.375 0 6.198.45 8.908 1.982.75.488 1.455.546 1.445-1.284zm69.05 13.352l.07-8.864c0-1.163-.605-1.561-2.334-1.561h-2.03v-2.758h12.923v2.758h-1.685c-1.73 0-2.335.4-2.335 1.561v17.845l-5.058-.04-16.381-15.512v11.266c0 1.13.605 1.561 2.334 1.561h2.248v2.725h-13.421v-2.725h2.224c1.728 0 2.333-.432 2.333-1.561V36.423c0-1.163-.605-1.561-2.333-1.561h-2.224v-2.758h11.604l14.065 13.183zM99.762 31.07c-10.299 0-16.746 4.554-16.746 11.863 0 7.18 6.358 11.698 16.433 11.698 10.7 0 16.926-4.453 16.926-12.063 0-6.845-6.717-11.498-16.612-11.498zm-.233 20.67c-5.701 0-8.978-3.29-8.978-8.972 0-5.55 3.42-8.84 9.263-8.84 5.606 0 8.883 3.357 8.883 9.073 0 5.583-3.325 8.74-9.168 8.74z"/></g></g></svg>