<svg width="235" height="80" viewBox="0 0 235 80" xmlns="http://www.w3.org/2000/svg"><title>Group 10</title><g fill="none" fill-rule="evenodd"><path fill="#FFF" d="M0 0h235v80H0z"/><g fill-rule="nonzero"><path d="M141.23 29.626c-.737 1.179-1.045 4.883-.79 7.345.088.811.233 1.489.451 1.89.294.561.787.896 1.35.914.357.019.584-.04 7.372-2.23l3.033-.964c.746-.194 1.256-.883 1.305-1.766.049-.908-.422-1.706-1.189-1.995l-2.13-.869c-7.297-3.01-7.622-3.125-7.993-3.129-.561-.026-1.06.261-1.41.804m16.316 22.42c.12-.343.133-.577.15-7.708 0 0 .02-3.151.026-3.186.045-.767-.453-1.473-1.273-1.788-.843-.327-1.75-.127-2.262.51 0 0-1.485 1.761-1.491 1.764-5.11 6.006-5.324 6.28-5.446 6.639a1.417 1.417 0 0 0-.084.653c.033.316.173.636.416.921 1.183 1.414 6.868 3.505 8.679 3.195.63-.114 1.091-.473 1.285-1m11.524-2.482c1.718-.684 5.459-5.44 5.72-7.267.09-.64-.108-1.186-.55-1.539-.282-.216-.509-.3-7.287-2.527 0 0-2.98-.983-3.012-1-.725-.28-1.545-.021-2.097.662-.576.7-.665 1.62-.202 2.318l1.197 1.949c4.029 6.543 4.333 7.004 4.622 7.233.449.348 1.022.411 1.61.17m-3.499-16.839c7.71-1.864 8.006-1.962 8.312-2.162.467-.318.698-.84.659-1.487 0-.022.002-.04 0-.063-.2-1.891-3.514-6.817-5.148-7.616-.582-.276-1.161-.257-1.638.061-.298.2-.52.485-4.645 6.135 0 0-1.866 2.542-1.888 2.564-.492.596-.498 1.455-.021 2.19.496.761 1.34 1.133 2.112.919l-.042.065c.378-.145 1.063-.312 2.3-.606m-7.744-6.366c-.134-3.056-1.05-16.658-1.158-17.286-.157-.576-.604-.981-1.246-1.142-1.964-.49-9.49 1.621-10.882 3.06-.445.464-.612 1.041-.48 1.551.219.45 9.538 15.112 9.538 15.112 1.379 2.236 2.503 1.887 2.87 1.773.367-.114 1.485-.463 1.358-3.068" fill="#E9E9E9"/><path d="M141.846 28.084c-.735 1.177-1.045 4.883-.79 7.343.09.811.237 1.489.45 1.893.295.559.788.89 1.35.911.362.019.587-.043 7.375-2.225 0 0 3.016-.963 3.029-.969.752-.192 1.258-.883 1.307-1.766.05-.906-.418-1.706-1.189-1.995 0 0-2.127-.867-2.132-.867-7.294-3.009-7.622-3.127-7.99-3.13-.562-.024-1.062.26-1.41.805M158.163 50.5c.118-.343.132-.577.153-7.708 0 0 .016-3.151.018-3.182.05-.773-.45-1.477-1.268-1.79-.843-.325-1.75-.125-2.26.51 0 0-1.49 1.766-1.493 1.766-5.11 6.002-5.324 6.28-5.449 6.635a1.457 1.457 0 0 0-.081.654c.03.319.175.633.414.926 1.185 1.408 6.868 3.498 8.683 3.189.63-.115 1.09-.47 1.283-1m11.528-2.482c1.714-.683 5.45-5.438 5.714-7.268.091-.636-.108-1.185-.547-1.536-.288-.216-.506-.3-7.29-2.527 0 0-2.976-.983-3.014-1.002-.72-.279-1.543-.02-2.096.662-.575.7-.66 1.623-.201 2.32l1.197 1.951c4.026 6.539 4.334 7.002 4.624 7.228.449.353 1.02.41 1.613.172m-3.506-16.836c7.71-1.868 8.008-1.966 8.312-2.166.467-.314.702-.84.66-1.481 0-.02.005-.043 0-.065-.197-1.893-3.514-6.817-5.147-7.616-.58-.278-1.159-.26-1.64.063-.298.193-.516.487-4.645 6.133 0 0-1.864 2.54-1.886 2.564-.492.598-.5 1.455-.019 2.189.498.76 1.338 1.132 2.11.918 0 0-.031.055-.04.065.38-.143 1.06-.31 2.295-.604m-7.738-6.366c-.133-3.056-1.053-16.66-1.161-17.29-.155-.572-.602-.98-1.242-1.14-1.969-.488-9.49 1.619-10.884 3.057-.449.467-.614 1.042-.48 1.552.221.451 9.54 15.114 9.54 15.114 1.377 2.234 2.501 1.887 2.87 1.77.365-.111 1.483-.458 1.357-3.063" fill="#BF2519"/><path d="M62.985 57.064c.97.9 2.81 1.154 5.046.7 2.095-.414 3.394-1.35 4.644-5.326l6.227-19.565c.322-1.039.298-1.94-.07-2.609-.301-.539-.8-.904-1.506-1.091-1.11-.304-2.495-.274-3.368 2.708L70.691 42.98s-6.656-12.573-6.66-12.575c-.42-.84-1.652-1.442-2.907-.944-1.635.622-2.18 2.092-1.528 3.987 0 0 8.096 16.475 8.115 16.52 0 0 .22.587.22.683 0 0 .073.447.073.463-.016.635-.228 1.169-.608 1.526-.373.35-.891.534-1.497.51 0 0-1.262-.03-1.358-.03-1.297.16-2.113.905-2.244 2.055-.091.74.147 1.391.688 1.889zm31.898-18.551h-8.668c-.235-.171-.349-.46-.174-1.324.11-.455.229-.863.576-1.434.112-.171.228-.347.34-.522.634-.802 1.493-1.316 2.47-1.544 3.048-.745 5.173.803 5.518 3.445.165 1.153.056 1.379-.062 1.379zm5.328-1.51c-.28-2.826-1.37-5.033-3.16-6.386-1.905-1.446-4.601-1.907-7.793-1.336-4.002.694-6.405 3.553-6.955 8.281-.678 5.652.252 9.911 2.698 12.32 1.844 1.822 4.571 2.546 7.888 2.097 4.73-.665 6.857-3.261 6.857-4.904 0-1.207-.73-2.158-1.803-2.302-.614-.123-1.132 0-2.279 1.025-1.652 1.44-3.567 2.02-5.264 1.59-1.293-.329-2.303-1.22-2.76-2.442 0 0-.203-.808-.191-.718-.14-.728-.202-1.45.246-1.744l.12-.082h10.39c.96 0 1.445-.124 1.725-.426.571-.634.526-2.445.281-4.973zm9.42-14.95c-.823-.335-1.75-.245-2.565.24-.783.463-1.11 1.169-1.11 2.444V49.51s.137.885.152.924c.175.618.632 1.144 1.267 1.432.703.326 1.515.32 2.241-.02.904-.392 1.436-1.296 1.436-2.416V24.61s-.157-1.2-.157-1.221c-.145-.576-.62-1.073-1.265-1.337zm19.605 25.163c-3.43 0-3.977-3.045-4.085-5.344-.007-.006-.046-1.346-.046-1.346s.04-.995.04-1.034c.222-3.978 1.044-5.546 3.143-5.983 1.409-.326 2.486-.167 3.294.484 1.213.977 1.748 3.045 1.699 6.496-.035 4.04-.739 6.727-4.045 6.727zm.255-18.19c-2.299-.47-4.265-.075-6.156 1.205 0 0-.212.172-.294.221l-.169.086-.518.232-.147-.581-.124-.21-.043-.13-.014-.04s-.127-.169-.145-.195c-.543-.845-2.018-1.232-3.347-.474-.651.37-1.024.89-1.024 2.442v24.315c0 1.332.418 2.16 1.332 2.597.77.387 1.638.418 2.382.098.632-.278 1.097-.768 1.27-1.363l.154-1.042v-4.208l-.045-.677.018-.2.027-.096.25-.802.762.506s.191.127.273.212l.228.151.265.155c.005 0 .245.118.245.118 2.04.963 4.769.851 6.966-.281 2.766-1.444 4.132-4.006 4.448-8.307.661-8.598-1.317-12.706-6.594-13.732zm10.66 20.093h.283c.23 0 .447-.012.447-.271 0-.233-.198-.257-.376-.257h-.355v.528zm-.233-.736h.608c.398 0 .583.145.583.475 0 .298-.19.422-.438.449l.479.732h-.25l-.454-.712h-.296v.712h-.232v-1.656zm.536 2.04c.671 0 1.212-.529 1.212-1.228 0-.688-.54-1.218-1.212-1.218-.673 0-1.213.53-1.213 1.232a1.202 1.202 0 0 0 1.213 1.213zm0-2.652c.784 0 1.443.616 1.443 1.424 0 .822-.66 1.436-1.443 1.436-.785 0-1.442-.614-1.442-1.422a1.43 1.43 0 0 1 1.442-1.438z" fill="#231F20"/></g></g></svg>