<svg width="200" height="50" viewBox="0 0 200 50" xmlns="http://www.w3.org/2000/svg"><title>Group 23</title><g fill="none" fill-rule="evenodd"><path fill="#FFF" d="M0 0h200v50H0z"/><path d="M11.5 7.5c4.667-4.667 30.333-4.667 35 0 4.667 4.667 4.667 30.333 0 35-4.667 4.667-30.333 4.667-35 0-4.667-4.667-4.667-30.333 0-35z" fill="#AE69EA"/><path d="M28.997 38.97c5.817 0 10.73-3.768 10.73-10.017C39.727 23.42 32.36 11 28.997 11c-3.363 0-10.73 12.42-10.73 17.953 0 6.25 4.913 10.017 10.73 10.017z" fill="#FFF"/><path d="M29.103 36.168c4.263 0 7.598-3.436 7.598-7.355.267-4.695-7.598-15.125-7.598-15.125s-7.865 10.43-7.598 15.125c0 3.92 3.335 7.355 7.598 7.355z" fill="#AE69EA"/><path d="M29.05 33.433c2.81 0 5.008-2.265 5.008-4.848.175-3.095-5.008-9.969-5.008-9.969s-5.184 6.874-5.008 9.969c0 2.583 2.198 4.848 5.008 4.848z" fill="#FFF"/><path d="M76.746 17.453l-5.015 7.295-5.015-7.295c-.24-.36-.551-.552-.96-.552-.623 0-1.08.504-1.055 1.104 0 .24.072.456.192.648l5.735 8.038v6.119c0 .6.504 1.08 1.103 1.08.6 0 1.08-.48 1.08-1.08V26.69l5.76-8.038c.119-.192.191-.408.191-.648a1.046 1.046 0 0 0-1.056-1.104c-.408 0-.72.192-.96.552zm15.07 14.133h-7.847V18.005c0-.6-.504-1.104-1.104-1.104-.6 0-1.08.504-1.08 1.104v14.253c0 .84.672 1.512 1.512 1.512h8.518c.6 0 1.104-.48 1.104-1.08 0-.6-.504-1.104-1.104-1.104zm19.795-6.526c1.224-.552 2.352-1.704 2.352-3.696 0-2.591-1.872-4.343-5.375-4.343h-5.663c-.6 0-1.08.504-1.08 1.104V32.69c0 .6.48 1.08 1.08 1.08h5.807c4.439 0 6.167-1.896 6.167-4.703 0-2.208-1.56-3.456-3.288-4.007zm.264-3.528c0 1.56-.84 2.736-3.863 2.736h-3.983V19.06h4.39c2.184 0 3.456.984 3.456 2.471zm-3.36 10.198h-4.486v-5.495h4.51c2.76 0 4.248.84 4.248 2.736 0 1.631-.984 2.76-4.271 2.76zm13.726 2.28c2.136 0 3.455-1.104 4.463-2.208v.984a1.1 1.1 0 0 0 1.104 1.104c.6 0 1.08-.48 1.08-1.104V22.492c0-.6-.48-1.08-1.08-1.08-.6 0-1.104.48-1.104 1.08v7.199c-.96 1.2-2.207 2.303-3.935 2.303-1.872 0-2.64-1.104-2.64-2.927v-6.575c0-.6-.48-1.08-1.08-1.08-.6 0-1.103.48-1.103 1.08v6.815c0 2.567 1.56 4.703 4.295 4.703zm12.933-16.293c0-.672-.551-1.224-1.223-1.224h-.144c-.672 0-1.224.552-1.224 1.224v.096c0 .672.552 1.224 1.224 1.224h.144c.672 0 1.223-.552 1.223-1.224v-.096zm-1.32 3.695c-.6 0-1.08.48-1.08 1.104V32.81c0 .6.48 1.08 1.08 1.08.625 0 1.104-.48 1.104-1.08V22.516c0-.624-.48-1.104-1.103-1.104zm6.263-5.279c-.6 0-1.08.48-1.08 1.104V32.81c0 .6.48 1.08 1.08 1.08.624 0 1.104-.48 1.104-1.08V17.237c0-.624-.48-1.104-1.104-1.104zm10.15 5.16c-2.903 0-5.806 2.279-5.806 6.358 0 4.08 2.903 6.359 5.806 6.359 1.68 0 3-.672 4.104-1.824v.624c0 .6.48 1.08 1.103 1.08.6 0 1.08-.48 1.08-1.08V17.237c0-.624-.48-1.104-1.08-1.104-.624 0-1.103.48-1.103 1.104v5.879c-1.104-1.152-2.424-1.824-4.104-1.824zm.312 10.677c-2.28 0-3.935-1.488-3.935-4.319s1.656-4.32 3.935-4.32c1.56 0 2.856.769 3.792 1.8v5.04c-.936 1.031-2.232 1.8-3.792 1.8zm19.124-.84a.879.879 0 0 0-.432.096c-.887.456-1.8.744-3.239.744-2.591 0-3.96-1.392-4.199-3.551h8.134c.672 0 1.104-.48 1.104-1.08 0-3.191-2.015-6.047-5.71-6.047-3.984 0-5.736 3.12-5.736 6.359 0 4.031 2.304 6.359 6.215 6.359 2.088 0 3.144-.456 4.2-1.056.335-.192.623-.504.623-.888 0-.552-.456-.936-.96-.936zm-4.343-7.99c1.536 0 3.408 1.008 3.552 3.503h-7.079c.144-2.495 1.992-3.503 3.527-3.503zm14.733-1.848h-.12c-1.655 0-2.903 1.104-3.767 2.256v-1.032c0-.6-.504-1.104-1.104-1.104-.6 0-1.08.504-1.08 1.104V32.81c0 .6.48 1.08 1.08 1.08.6 0 1.104-.48 1.104-1.08v-7.295c.84-1.247 2.136-2.111 3.72-2.111h.12c.623 0 1.103-.408 1.103-1.032 0-.6-.456-1.08-1.056-1.08zm4.655 3.672c0-.96.984-1.68 2.76-1.68a9.08 9.08 0 0 1 2.735.432c.096.024.192.048.312.048.552 0 .96-.456.96-.96 0-.36-.24-.768-.696-.912-.984-.36-2.16-.6-3.48-.6-3.119 0-4.678 1.632-4.678 3.791 0 4.368 7.198 3.144 7.198 5.207 0 1.08-.816 1.704-2.663 1.704-1.416 0-2.4-.336-3.264-.72a1.01 1.01 0 0 0-.431-.096c-.552 0-.936.48-.936.96 0 .336.168.624.408.792 1.223.672 2.615 1.08 4.367 1.08 3.071 0 4.63-1.608 4.63-3.552 0-4.703-7.222-2.999-7.222-5.494z" stroke="#2A3033" stroke-width=".5" fill="#2A3033"/></g></svg>