<?xml version="1.0" encoding="UTF-8" standalone="no"?>
<svg width="1443px" height="902px" viewBox="0 0 1443 902" version="1.1" xmlns="http://www.w3.org/2000/svg" xmlns:xlink="http://www.w3.org/1999/xlink">
    <!-- Generator: Sketch 50.2 (55047) - http://www.bohemiancoding.com/sketch -->
    <title>Group 90</title>
    <desc>Created with Sketch.</desc>
    <defs>
        <path d="M32.1818182,428 L-3.19744231e-14,428 L-3.19744231e-14,-1.42108547e-14 L708,-1.42108547e-14 L708,428 L675.818182,428 C675.818182,605.283405 531.735274,749 354,749 C176.264726,749 32.1818182,605.283405 32.1818182,428 Z" id="path-1"></path>
        <path d="M332.545455,398.066976 L332.545455,436.025 L471.563636,436.025 C507.351688,436.025 536.363636,465.036948 536.363636,500.825 L536.363636,652.7 L0,652.7 L-1.42108547e-14,500.825 C-1.8593627e-14,465.036948 29.0119482,436.025 64.8,436.025 L203.818182,436.025 L203.818182,398.066976 C154.565584,386.08738 118,341.688865 118,288.75 L118,267.055041 C102.779538,264.501531 91.1818182,251.264253 91.1818182,235.318182 L91.1818182,198.031818 C91.1818182,182.085747 102.779538,168.848469 118,166.294959 L118,112.5 C118,50.3679656 168.367966,-1.70082399e-14 230.5,-2.84217094e-14 L305.863636,-2.84217094e-14 C367.995671,-3.9835179e-14 418.363636,50.3679656 418.363636,112.5 L418.363636,166.294959 C433.584099,168.848469 445.181818,182.085747 445.181818,198.031818 L445.181818,235.318182 C445.181818,251.264253 433.584099,264.501531 418.363636,267.055041 L418.363636,288.75 C418.363636,341.688865 381.798053,386.08738 332.545455,398.066976 Z" id="path-3"></path>
        <path d="M417.660504,34.9349124 C458.619657,39.5102807 491.543614,50.8477403 500.75549,77.5077039 L556.336134,77.5077135 C592.124186,77.5077135 621.136134,106.519662 621.136134,142.307714 L621.136134,294 L85.6739496,294 L85.6739496,142.307714 C85.6739496,106.519662 114.685898,77.5077135 150.47395,77.5077135 L206.054507,77.5077135 C215.26647,50.8477403 248.190427,39.5102807 289.14958,34.9349124 L289.14958,113.672727 C289.14958,133.554978 305.267329,149.672727 325.14958,149.672727 L381.660504,149.672727 C401.542755,149.672727 417.660504,133.554978 417.660504,113.672727 L417.660504,34.9349124 Z" id="path-5"></path>
        <path d="M94.492343,40.1650449 C97.3387716,65.3655757 118.999821,84.96 145.298969,84.96 C171.679357,84.96 193.392948,65.244331 196.131435,39.931345 C196.35183,37.8941406 194.046082,34.515 191.156311,34.515 C151.080667,34.515 120.377293,34.515 99.7903213,34.515 C96.8837834,34.515 94.2075619,37.6437676 94.492343,40.1650449 Z" id="path-7"></path>
        <rect id="path-9" x="0" y="0" width="708" height="749"></rect>
        <path d="M483.691389,106.787092 C476.281571,99.2435667 467.678243,92.8407694 459.310205,86.420022 C457.463813,85.0046574 455.587784,83.6233979 453.782702,82.154183 C453.372293,81.8203113 449.168517,78.8208512 448.665608,77.7169206 C447.455035,75.0612047 448.156413,77.1290551 448.323451,73.9599667 C448.534493,69.9526089 456.736391,58.6341793 450.616175,56.0385962 C447.923818,54.8969705 443.121042,57.9350233 440.538248,58.9384334 C435.486711,60.9021733 430.37321,62.5769167 425.151044,64.0210015 C427.653013,59.0542114 432.42346,49.1116563 423.45732,51.7727572 C416.47228,53.8459927 409.963207,59.1762721 402.944042,61.6838997 C405.266401,57.8910456 414.554043,46.1382238 406.161758,45.4812505 C403.550226,45.2766194 395.950919,50.1572491 393.139122,51.1983543 C384.717201,54.3171825 376.114771,56.3329777 367.272562,57.9206632 C337.206717,63.319153 302.048025,61.7799327 274.230899,75.417514 C252.785444,85.9308821 231.609404,102.243924 219.220792,123.016667 C207.280307,143.039095 202.8143,164.951668 200.315025,187.895474 C198.481205,204.733557 198.332128,222.138862 199.189767,239.037975 C199.469959,244.57468 200.095002,270.097016 208.16848,262.367707 C212.19085,258.516515 212.161214,242.965454 213.174215,237.70159 C215.19034,227.22861 217.131028,216.708959 220.492432,206.570748 C226.415976,188.705023 233.40371,180.374337 248.160482,168.06955 C257.630428,160.174203 264.280495,149.502874 273.342726,141.537521 C277.413591,137.960068 274.307233,138.332532 280.852228,138.801927 C285.249085,139.116951 289.665699,139.237217 294.071537,139.352098 C304.263516,139.615964 314.471661,139.548651 324.666334,139.584551 C345.197574,139.658147 365.632721,139.947143 386.144204,138.87642 C395.25942,138.400743 404.399782,138.143159 413.490751,137.303095 C418.569229,136.8337 427.580271,133.591016 431.760698,136.069026 C435.586395,138.336123 439.559372,145.73874 442.30651,148.77051 C448.796723,155.935289 456.535228,161.407374 464.124656,167.282439 C479.950109,179.532478 487.940067,184.218398 492.746436,203.36217 C497.534843,222.435038 496.192257,240.129801 502.119393,258.899313 C503.16203,262.199438 505.919944,267.887821 509.319965,262.789098 C509.951294,261.842231 509.787849,256.636899 509.787849,253.641732 C509.787849,241.551412 512.860979,232.479909 512.822363,220.310645 C512.671491,183.310123 511.470796,135.062972 483.691389,106.787092 Z" id="path-11"></path>
    </defs>
    <g id="Website" stroke="none" stroke-width="1" fill="none" fill-rule="evenodd">
        <g id="Group-90" transform="translate(0.000000, 2.000000)">
            <g id="Group-84">
                <circle id="Oval-11" fill="#8C43FF" opacity="0.253206623" cx="95" cy="631" r="26"></circle>
                <path d="M1168.687,356.917134 L1168.687,357.03426 C1196.52804,358.868766 1218.54206,382.024484 1218.54206,410.333264 C1218.54206,438.63587 1196.52916,461.797336 1168.687,463.632246 L1168.687,463.749393 L1238.12463,463.749393 C1267.62739,463.749393 1291.5441,487.658123 1291.5441,517.165523 C1291.5441,546.666437 1267.63176,570.581653 1238.12463,570.581653 L1168.687,570.581653 L1152.65279,570.581653 C1123.16193,570.581653 1099.24603,594.496869 1099.24603,623.997783 C1099.24603,653.505183 1123.15705,677.413912 1152.65279,677.413912 L1168.687,677.413912 L1243.46624,677.413912 C1272.969,677.413912 1296.88571,701.322642 1296.88571,730.830042 C1296.88571,760.330956 1272.97337,784.246172 1243.46624,784.246172 L1168.687,784.246172 L1101.02662,784.246172 C1130.52751,784.246172 1154.4427,808.154901 1154.4427,837.662302 C1154.4427,867.163215 1130.52648,891.078431 1101.02662,891.078431 L285.540273,891.078431 C256.039387,891.078431 232.124195,867.169702 232.124195,837.662302 C232.124195,808.161388 256.040417,784.246172 285.540273,784.246172 L353.200755,784.246172 L362.106173,784.246172 C391.605056,784.246172 415.519573,760.330956 415.519573,730.830042 C415.519573,701.322642 391.60558,677.413912 362.106173,677.413912 L353.200755,677.413912 L205.419471,677.413912 C175.916712,677.413912 152,653.505183 152,623.997783 C152,594.496869 175.912342,570.581653 205.419471,570.581653 L250.827622,570.581653 C221.32241,570.581653 197.40371,546.672923 197.40371,517.165523 C197.40371,487.664609 221.31904,463.749393 250.827622,463.749393 L353.200755,463.749393 L437.77081,463.749393 C467.276056,463.749393 491.192424,439.834177 491.192424,410.333264 C491.192424,380.825863 467.274753,356.917134 437.77081,356.917134 L353.200755,356.917134 L308.690655,356.917134 C279.187896,356.917134 255.271184,333.008404 255.271184,303.501004 C255.271184,274.00009 279.183526,250.084874 308.690655,250.084874 L239.700022,250.084874 C210.19439,250.084874 186.27535,226.176145 186.27535,196.668745 C186.27535,167.167831 210.190461,143.252615 239.700022,143.252615 L1175.80061,143.252615 C1205.30624,143.252615 1229.22528,167.161344 1229.22528,196.668745 C1229.22528,226.169658 1205.31017,250.084874 1175.80061,250.084874 L1168.687,250.084874 L1126.85215,250.084874 C1097.34357,250.084874 1073.42824,274.00009 1073.42824,303.501004 C1073.42824,333.008404 1097.34694,356.917134 1126.85215,356.917134 L1168.687,356.917134 Z" id="Combined-Shape" fill="#E2D7F4" opacity="0.835389459"></path>
                <g id="Avataaar/Circle" transform="translate(371.000000, 0.000000)">
                    <mask id="mask-2" fill="white">
                        <use xlink:href="#path-1"></use>
                    </mask>
                    <g id="Mask"></g>
                    <g id="Avataaar" mask="url(#mask-2)">
                        <g id="Body" transform="translate(85.818182, 96.300000)">
                            <mask id="mask-4" fill="white">
                                <use xlink:href="#path-3"></use>
                            </mask>
                            <use fill="#D0C6AC" xlink:href="#path-3"></use>
                            <g id="Skin/ðŸ‘¶ðŸ»-05-Pale" mask="url(#mask-4)" fill="#FFDBB4">
                                <g transform="translate(-85.818182, 0.000000)" id="Color">
                                    <rect x="0" y="0" width="709.141935" height="654.053226"></rect>
                                </g>
                            </g>
                            <path d="M418.363636,288.75 L418.363636,310.15 C418.363636,372.282034 367.995671,422.65 305.863636,422.65 L230.5,422.65 C168.367966,422.65 118,372.282034 118,310.15 L118,288.75 C118,350.882034 168.367966,401.25 230.5,401.25 L305.863636,401.25 C367.995671,401.25 418.363636,350.882034 418.363636,288.75 Z" id="Neck-Shadow" fill-opacity="0.100000001" fill="#000000" mask="url(#mask-4)"></path>
                        </g>
                        <g id="Clothing/Hoodie" transform="translate(0.000000, 454.750000)">
                            <mask id="mask-6" fill="white">
                                <use xlink:href="#path-5"></use>
                            </mask>
                            <use id="Hoodie" fill="#B7C1DB" fill-rule="evenodd" xlink:href="#path-5"></use>
                            <g id="Color/Palette/Slate" mask="url(#mask-6)" fill="#293347" fill-rule="evenodd">
                                <rect id="ðŸ–Color" x="0" y="0" width="708.457732" height="294"></rect>
                            </g>
                            <path d="M273.085714,165.011651 L273.085714,294 L254.344538,294 L254.344538,155.419793 C260.244673,158.920518 266.517653,162.129742 273.085714,165.011651 Z M452.465546,155.419793 L452.465546,263.247594 C452.465546,268.422827 448.270191,272.618182 443.094958,272.618182 C437.919725,272.618182 433.72437,268.422827 433.72437,263.247594 L433.72437,165.011651 C440.292431,162.129742 446.565411,158.920518 452.465546,155.419793 Z" id="Straps" fill="#F4F4F4" fill-rule="evenodd" mask="url(#mask-6)"></path>
                            <path d="M353.389264,181.745454 C263.805624,181.74044 175.363866,139.032205 175.363866,86.3496503 C175.363866,56.7764386 203.232821,41.6175138 243.528553,34.0087281 C219.205045,42.962647 203.47563,58.0143641 203.47563,83.0601399 C203.47563,137.558735 277.951261,181.739294 353.389264,181.745454 Z M463.281531,34.0087281 C503.577263,41.6175138 531.446218,56.7764386 531.446218,86.3496503 C531.446218,139.032205 443.00446,181.74044 353.42082,181.745454 C428.858823,181.739294 503.334454,137.558735 503.334454,83.0601399 C503.334454,58.0143641 487.605039,42.962647 463.281526,34.0087272 Z" id="Shadow" fill-opacity="0.16" fill="#000000" fill-rule="evenodd" mask="url(#mask-6)"></path>
                        </g>
                        <g id="Face" transform="translate(203.818182, 219.350000)">
                            <g id="Mouth/Smile" transform="translate(5.363636, 139.100000)">
                                <mask id="mask-8" fill="white">
                                    <use xlink:href="#path-7"></use>
                                </mask>
                                <use id="Mouth" fill-opacity="0.699999988" fill="#000000" fill-rule="evenodd" xlink:href="#path-7"></use>
                                <rect id="Teeth" fill="#FFFFFF" fill-rule="evenodd" mask="url(#mask-8)" x="104.938144" y="5.31" width="83.4123711" height="42.48" rx="4.5"></rect>
                                <g id="Tongue" stroke-width="1" fill-rule="evenodd" mask="url(#mask-8)" fill="#FF4F6D">
                                    <g transform="translate(102.247423, 63.720000)">
                                        <ellipse cx="29.5979381" cy="29.205" rx="29.5979381" ry="29.205"></ellipse>
                                        <ellipse cx="56.5051546" cy="29.205" rx="29.5979381" ry="29.205"></ellipse>
                                    </g>
                                </g>
                            </g>
                            <g id="Nose/Default" transform="translate(75.090909, 107.000000)" fill="#000000" fill-opacity="0.16">
                                <path d="M43.2,20.9454545 C43.2,32.5133097 57.7059741,41.8909091 75.6,41.8909091 C93.4940259,41.8909091 108,32.5133097 108,20.9454545" id="Nose"></path>
                            </g>
                            <g id="Eyes/Happy-ðŸ˜" transform="translate(0.000000, 21.400000)" fill="#000000" fill-opacity="0.599999964">
                                <path d="M43.2004476,59.5976122 C48.1366585,49.5117887 59.2514264,42.48 72.1717493,42.48 C85.0464621,42.48 96.1283451,49.4622306 101.090544,59.4909148 C102.564607,62.4700199 100.46701,64.9080638 98.3511276,63.1014456 C91.7986803,57.5067247 82.4935981,54.0127581 72.1717493,54.0127581 C62.1727292,54.0127581 53.127869,57.2915862 46.6152037,62.5827074 C44.2340007,64.5172815 41.7567061,62.5475107 43.2004476,59.5976122 Z" id="Squint"></path>
                                <path d="M198.249953,59.5976122 C203.186163,49.5117887 214.300931,42.48 227.221254,42.48 C240.095967,42.48 251.17785,49.4622306 256.140049,59.4909148 C257.614112,62.4700199 255.516515,64.9080638 253.400633,63.1014456 C246.848185,57.5067247 237.543103,54.0127581 227.221254,54.0127581 C217.222234,54.0127581 208.177374,57.2915862 201.664709,62.5827074 C199.283506,64.5172815 196.806211,62.5475107 198.249953,59.5976122 Z" id="Squint"></path>
                            </g>
                            <g id="Eyebrow/Natural/Default-Natural" fill="#000000" fill-opacity="0.599999964">
                                <path d="M69.6094577,16.2592328 C54.2073263,18.2839737 30.1890243,31.4319218 32.1975268,46.6502692 C32.2635247,47.1483604 33.0328432,47.3035988 33.3648027,46.8876927 C40.0118725,38.5405138 91.4064879,26.2775077 110.123289,28.8385268 C111.836278,29.0734598 112.967108,27.3417627 111.798847,26.2609047 C101.78884,17.0047093 83.4069542,14.4320681 69.6094577,16.2592328" id="Eyebrow" transform="translate(72.178218, 31.418182) rotate(5.000000) translate(-72.178218, -31.418182) "></path>
                                <path d="M227.33223,16.2592328 C211.930099,18.2839737 187.911797,31.4319218 189.920299,46.6502692 C189.986297,47.1483604 190.755616,47.3035988 191.087575,46.8876927 C197.734645,38.5405138 249.12926,26.2775077 267.846061,28.8385268 C269.559051,29.0734598 270.68988,27.3417627 269.521619,26.2609047 C259.511613,17.0047093 241.129726,14.4320681 227.33223,16.2592328" id="Eyebrow" transform="translate(229.900990, 31.418182) scale(-1, 1) rotate(5.000000) translate(-229.900990, -31.418182) "></path>
                            </g>
                        </g>
                        <g id="Top">
                            <mask id="mask-10" fill="white">
                                <use xlink:href="#path-9"></use>
                            </mask>
                            <g id="Mask"></g>
                            <g id="Top/Short-Hair/Short-Flat-Low" mask="url(#mask-10)">
                                <g transform="translate(-2.681818, 0.000000)">
                                    <mask id="mask-12" fill="white">
                                        <use xlink:href="#path-11"></use>
                                    </mask>
                                    <use id="Short-Hair" stroke="none" fill="#1F3140" fill-rule="evenodd" xlink:href="#path-11"></use>
                                    <g id="Color/Hair/Brown-Dark" stroke="none" fill="none" mask="url(#mask-12)" fill-rule="evenodd">
                                        <g transform="translate(2.684937, 0.000000)" fill="#4A312C" id="Color">
                                            <rect x="0" y="0" width="712.297674" height="750.208065"></rect>
                                        </g>
                                    </g>
                                </g>
                            </g>
                        </g>
                    </g>
                </g>
                <rect id="Case" stroke="#8C43FF" stroke-width="8" fill="#FFFFFF" x="349" y="392" width="751" height="504" rx="28"></rect>
                <path d="M741.64421,603.534292 C745.731242,598.627813 748.474165,591.810022 747.723964,585 C741.859111,585.229202 734.728294,588.90032 730.531857,593.787375 C726.765223,598.142215 723.463557,605.07655 724.338792,611.735065 C730.887421,612.240086 737.576714,608.433001 741.64421,603.534292 M772,670.088365 C771.85543,670.484612 769.54231,678.413451 763.911895,686.575377 C759.06294,693.649563 754.006897,700.700441 746.051641,700.840293 C738.252676,700.9918 735.740284,696.240712 726.808203,696.240712 C717.88003,696.240712 715.09022,700.700441 707.697614,700.9918 C700.015868,701.290928 694.190088,693.350435 689.278616,686.311211 C679.248584,671.910327 671.605912,645.606473 681.870381,627.868562 C686.98894,619.050108 696.104664,613.479332 706.013569,613.327825 C713.562466,613.203512 720.665932,618.366387 725.272635,618.366387 C729.883246,618.366387 738.514465,612.123543 747.606745,613.040351 C751.396823,613.211282 762.079373,614.56707 768.948401,624.547074 C768.381843,624.904473 756.198891,631.943697 756.331739,646.624286 C756.484124,664.175728 771.820264,670.018439 772,670.088365" id="apple_logo" fill="#E2D7F4"></path>
                <circle id="Oval-11" fill="#8C43FF" opacity="0.451142724" cx="24" cy="273" r="24"></circle>
                <circle id="Oval-11" fill="#8C43FF" opacity="0.493703358" cx="98.5" cy="146.5" r="15.5"></circle>
                <g id="Group-81" opacity="0.7" transform="translate(321.000000, 1.000000)" stroke="#8C43FF" stroke-linecap="round" stroke-width="12">
                    <path d="M0.681148457,27.530293 L55.16057,27.530293" id="Line" transform="translate(27.920859, 27.530293) rotate(-153.000000) translate(-27.920859, -27.530293) "></path>
                    <path d="M0.290582203,27.9208592 L54.7700037,27.9208592" id="Line" transform="translate(27.530293, 27.920859) rotate(-423.000000) translate(-27.530293, -27.920859) "></path>
                </g>
                <g id="Group-79" opacity="0.7" transform="translate(1304.000000, 561.000000)" stroke="#8C43FF" stroke-linecap="round" stroke-width="12">
                    <path d="M0.872385038,22.2479387 L44.0458344,22.2479387" id="Line" transform="translate(22.459110, 22.247939) rotate(-285.000000) translate(-22.459110, -22.247939) "></path>
                    <path d="M0.928069529,22.1922543 L44.1015189,22.1922543" id="Line" transform="translate(22.514794, 22.192254) rotate(-555.000000) translate(-22.514794, -22.192254) "></path>
                </g>
                <path d="M251.5,517 C260.060414,517 267,510.060414 267,501.5 C267,492.939586 260.060414,486 251.5,486 C242.939586,486 236,492.939586 236,501.5 C236,510.060414 242.939586,517 251.5,517 Z" id="Oval-11" fill="#8C43FF" opacity="0.212278451"></path>
                <circle id="Oval-11" fill="#8C43FF" opacity="0.149778451" cx="1056" cy="98" r="26"></circle>
                <circle id="Oval-11" fill="#8C43FF" opacity="0.304046175" cx="1159.5" cy="205.5" r="15.5"></circle>
                <circle id="Oval-11" fill="#8C43FF" opacity="0.157532649" cx="1418.46848" cy="411" r="24"></circle>
                <g id="Group-80" opacity="0.7" transform="translate(1332.000000, 130.000000)" stroke="#8C43FF" stroke-linecap="round" stroke-width="12">
                    <path d="M-1.87772536,25.4317852 L51.2428245,25.4317852" id="Line" transform="translate(24.682550, 25.431785) rotate(-40.000000) translate(-24.682550, -25.431785) "></path>
                    <path d="M-2.19231952,24.6825496 L50.9282304,24.6825496" id="Line" transform="translate(24.367955, 24.682550) rotate(-310.000000) translate(-24.367955, -24.682550) "></path>
                </g>
            </g>
            <g id="Group-86" transform="translate(824.000000, 369.000000)">
                <path d="M34,4 C27.9248678,4 23,8.92486775 23,15 L23,49.2825209 L6.31968018,59.1390735 C6.17445501,59.2248883 6.05329784,59.3460455 5.96748296,59.4912707 C5.68651952,59.9667473 5.84420359,60.5799631 6.31968018,60.8609265 L23,70.7174791 L23,105 C23,111.075132 27.9248678,116 34,116 L324,116 C330.075132,116 335,111.075132 335,105 L335,15 C335,8.92486775 330.075132,4 324,4 L34,4 Z" id="Rectangle-29" stroke="#8C43FF" stroke-width="8" fill="#8C43FF"></path>
                <g id="Group-85" transform="translate(182.000000, 60.000000) scale(1, -1) translate(-182.000000, -60.000000) translate(52.000000, 34.000000)" fill="#FFFFFF">
                    <rect id="Rectangle-11" opacity="0.7" transform="translate(74.000000, 6.000000) scale(1, -1) translate(-74.000000, -6.000000) " x="0" y="0" width="148" height="12" rx="6"></rect>
                    <rect id="Rectangle-11" opacity="0.7" transform="translate(199.000000, 6.000000) scale(1, -1) translate(-199.000000, -6.000000) " x="158" y="0" width="82" height="12" rx="6"></rect>
                    <rect id="Rectangle-11" transform="translate(35.000000, 46.000000) scale(1, -1) translate(-35.000000, -46.000000) " x="0" y="40" width="70" height="12" rx="6"></rect>
                    <rect id="Rectangle-11" opacity="0.7" transform="translate(140.000000, 46.000000) scale(1, -1) translate(-140.000000, -46.000000) " x="80" y="40" width="120" height="12" rx="6"></rect>
                    <rect id="Rectangle-11" opacity="0.7" transform="translate(235.000000, 46.000000) scale(1, -1) translate(-235.000000, -46.000000) " x="210" y="40" width="50" height="12" rx="6"></rect>
                </g>
            </g>
            <g id="Group-87" transform="translate(215.000000, 218.000000)">
                <path d="M33.1379023,4 C27.0627701,4 22.1379023,8.92486775 22.1379023,15 L22.1379023,49.2825209 L5.4575825,59.1390735 C5.31235734,59.2248883 5.19120016,59.3460455 5.10538529,59.4912707 C4.82442185,59.9667473 4.98210591,60.5799631 5.4575825,60.8609265 L22.1379023,70.7174791 L22.1379023,105 C22.1379023,111.075132 27.0627701,116 33.1379023,116 L153.137902,116 C159.213035,116 164.137902,111.075132 164.137902,105 L164.137902,15 C164.137902,8.92486775 159.213035,4 153.137902,4 L33.1379023,4 Z" id="Rectangle-29" stroke="#8C43FF" stroke-width="8" fill="#8C43FF" transform="translate(84.068951, 60.000000) scale(-1, 1) translate(-84.068951, -60.000000) "></path>
                <path d="M52.8125,52.75 C53.6979173,52.75 54.4505202,53.0598952 55.0703125,53.6796875 C55.6901048,54.2994798 56,55.0520827 56,55.9375 L56,87.8125 C56,88.6979173 55.6901048,89.4505202 55.0703125,90.0703125 C54.4505202,90.6901048 53.6979173,91 52.8125,91 L42.1875,91 C41.3020827,91 40.5494798,90.6901048 39.9296875,90.0703125 C39.3098952,89.4505202 39,88.6979173 39,87.8125 L39,55.9375 C39,55.0520827 39.3098952,54.2994798 39.9296875,53.6796875 C40.5494798,53.0598952 41.3020827,52.75 42.1875,52.75 L52.8125,52.75 Z M47.5,85.6875 C48.3854173,85.6875 49.1380202,85.3776048 49.7578125,84.7578125 C50.3776048,84.1380202 50.6875,83.3854173 50.6875,82.5 C50.6875,81.6145827 50.3776048,80.8619798 49.7578125,80.2421875 C49.1380202,79.6223952 48.3854173,79.3125 47.5,79.3125 C46.6145827,79.3125 45.8619798,79.6223952 45.2421875,80.2421875 C44.6223952,80.8619798 44.3125,81.6145827 44.3125,82.5 C44.3125,83.3854173 44.6223952,84.1380202 45.2421875,84.7578125 C45.8619798,85.3776048 46.6145827,85.6875 47.5,85.6875 Z M90,33.7578125 C90,35.3515625 89.734375,36.9453125 89.203125,38.5390625 C88.8489577,39.4244798 88.2291673,40.6640625 87.34375,42.2578125 C86.3697923,44.1171875 85.7942702,45.4895827 85.6171875,46.375 L99.03125,46.375 C101.244792,46.375 103.126301,47.1497389 104.675781,48.6992188 C106.225261,50.2486986 107,52.0416673 107,54.078125 C107,55.3177077 106.756511,56.5130202 106.269531,57.6640625 C105.782551,58.8151048 105.184895,59.7890625 104.476563,60.5859375 L104.34375,60.5859375 C105.052083,62.2682298 105.317708,64.0833327 105.140625,66.03125 C104.963542,67.9791673 104.29948,69.7057298 103.148438,71.2109375 C103.679688,72.8932298 103.723958,74.6640625 103.28125,76.5234375 C102.838542,78.3828125 102.085938,79.9322923 101.023438,81.171875 C101.554688,83.4739577 101.244792,85.4661452 100.09375,87.1484375 C98.9427077,88.8307298 96.8177077,89.9375 93.71875,90.46875 C91.859375,90.8229173 88.9817702,91 85.0859375,91 L84.6875,91 C81.8541673,91 78.9322923,90.5130202 75.921875,89.5390625 C74.1510423,89.0078125 71.7382813,88.0559889 68.6835938,86.6835938 C65.6289062,85.3111986 63.3489577,84.625 61.84375,84.625 C61.4010423,84.625 61.0247389,84.4700514 60.7148438,84.1601563 C60.4049486,83.8502611 60.25,83.4739577 60.25,83.03125 L60.25,54.609375 C60.25,54.1666673 60.4270827,53.8125 60.78125,53.546875 C62.5520827,51.6875 64.7213548,48.8984375 67.2890625,45.1796875 C69.4140625,42.0807298 71.1848952,39.8671875 72.6015625,38.5390625 C73.4869798,37.6536452 74.1953125,36.4583327 74.7265625,34.953125 C75.0807298,34.0677077 75.4791673,32.6510423 75.921875,30.703125 L75.921875,30.5703125 C76.453125,28.5338548 76.9401048,26.984375 77.3828125,25.921875 C78.2682298,23.9739577 79.2864577,23 80.4375,23 C82.828125,23 84.8203125,23.5755202 86.4140625,24.7265625 C88.8046875,26.4973952 90,29.5078125 90,33.7578125 Z" id="thumbs-up" fill="#FFFFFF"></path>
            </g>
            <g id="Group-88" transform="translate(295.000000, 631.000000)">
                <g id="Group-87" fill="#8C43FF" stroke="#8C43FF" stroke-width="8">
                    <path d="M33.1379023,4 C27.0627701,4 22.1379023,8.92486775 22.1379023,15 L22.1379023,49.2825209 L5.4575825,59.1390735 C5.31235734,59.2248883 5.19120016,59.3460455 5.10538529,59.4912707 C4.82442185,59.9667473 4.98210591,60.5799631 5.4575825,60.8609265 L22.1379023,70.7174791 L22.1379023,105 C22.1379023,111.075132 27.0627701,116 33.1379023,116 L153.137902,116 C159.213035,116 164.137902,111.075132 164.137902,105 L164.137902,15 C164.137902,8.92486775 159.213035,4 153.137902,4 L33.1379023,4 Z" id="Rectangle-29" transform="translate(84.068951, 60.000000) scale(-1, 1) translate(-84.068951, -60.000000) "></path>
                </g>
                <path d="M75.9218716,25 C82.2115643,25 88.0318755,26.5724237 93.3828074,29.7172689 C98.7337394,32.8621142 102.981629,37.1100039 106.126474,42.4609358 C109.27132,47.8118677 110.843743,53.632179 110.843743,59.9218716 C110.843743,66.2115643 109.27132,72.0318755 106.126474,77.3828074 C102.981629,82.7337394 98.7337394,86.981629 93.3828074,90.1264743 C88.0318755,93.2713195 82.2115643,94.8437432 75.9218716,94.8437432 C69.632179,94.8437432 63.8118677,93.2713195 58.4609358,90.1264743 C53.1100039,86.981629 48.8621142,82.7337394 45.7172689,77.3828074 C42.5724237,72.0318755 41,66.2115643 41,59.9218716 C41,53.632179 42.5724237,47.8118677 45.7172689,42.4609358 C48.8621142,37.1100039 53.1100039,32.8621142 58.4609358,29.7172689 C63.8118677,26.5724237 69.632179,25 75.9218716,25 Z M100.423507,41.8976798 C98.5459881,39.4569046 96.3868387,37.2977551 93.9460634,35.4202359 L85.0747815,44.4323318 C87.7033102,46.028223 89.8155202,48.140433 91.4114114,50.7689617 L100.423507,41.8976798 Z M75.9218716,73.4400155 C79.6769123,73.4400155 82.8686948,72.1257522 85.4972235,69.4972235 C88.1257522,66.8686948 89.4400155,63.6769123 89.4400155,59.9218716 C89.4400155,56.1668309 88.1257522,52.9750484 85.4972235,50.3465197 C82.8686948,47.717991 79.6769123,46.4037278 75.9218716,46.4037278 C72.1668309,46.4037278 68.9750484,47.717991 66.3465197,50.3465197 C63.717991,52.9750484 62.4037278,56.1668309 62.4037278,59.9218716 C62.4037278,63.6769123 63.717991,66.8686948 66.3465197,69.4972235 C68.9750484,72.1257522 72.1668309,73.4400155 75.9218716,73.4400155 Z M57.8976798,35.4202359 C55.4569046,37.2977551 53.2977551,39.4569046 51.4202359,41.8976798 L60.4323318,50.7689617 C62.028223,48.140433 64.140433,46.028223 66.7689617,44.4323318 L57.8976798,35.4202359 Z M51.4202359,77.9460634 C53.2977551,80.3868387 55.4569046,82.5459881 57.8976798,84.4235073 L66.7689617,75.4114114 C64.140433,73.8155202 62.028223,71.7033102 60.4323318,69.0747815 L51.4202359,77.9460634 Z M93.9460634,84.4235073 C96.3868387,82.5459881 98.5459881,80.3868387 100.423507,77.9460634 L91.4114114,69.0747815 C89.8155202,71.7033102 87.7033102,73.8155202 85.0747815,75.4114114 L93.9460634,84.4235073 Z" id="life-ring" fill="#FFFFFF"></path>
            </g>
            <g id="Group-89" transform="translate(1031.000000, 731.000000)">
                <path d="M33,4 C26.9248678,4 22,8.92486775 22,15 L22,49.2825209 L5.31968018,59.1390735 C5.17445501,59.2248883 5.05329784,59.3460455 4.96748296,59.4912707 C4.68651952,59.9667473 4.84420359,60.5799631 5.31968018,60.8609265 L22,70.7174791 L22,105 C22,111.075132 26.9248678,116 33,116 L153,116 C159.075132,116 164,111.075132 164,105 L164,15 C164,8.92486775 159.075132,4 153,4 L33,4 Z" id="Rectangle-29" stroke="#8C43FF" stroke-width="8" fill="#8C43FF"></path>
                <path d="M123.843743,60.4218716 C123.843743,66.0811878 122.428914,71.3181658 119.599257,76.1328074 C116.769599,80.947449 112.947449,84.7695994 108.132807,87.5992565 C103.318166,90.4289137 98.0811878,91.8437432 92.4218716,91.8437432 C86.7625554,91.8437432 81.5255774,90.4289137 76.7109358,87.5992565 C71.8962942,84.7695994 68.0741438,80.947449 65.2444867,76.1328074 C62.4148295,71.3181658 61,66.0811878 61,60.4218716 C61,54.7625554 62.4148295,49.5255774 65.2444867,44.7109358 C68.0741438,39.8962942 71.8962942,36.0741438 76.7109358,33.2444867 C81.5255774,30.4148295 86.7625554,29 92.4218716,29 C98.0811878,29 103.318166,30.4148295 108.132807,33.2444867 C112.947449,36.0741438 116.769599,39.8962942 119.599257,44.7109358 C122.428914,49.5255774 123.843743,54.7625554 123.843743,60.4218716 Z M93.3087793,39.3894898 C89.9300828,39.3894898 87.0159576,40.1074633 84.5664037,41.5434084 C82.285784,42.8104194 80.2585665,44.7954038 78.4847511,47.4983599 C78.2313489,47.8362301 78.1468809,48.1952159 78.2313489,48.5753192 C78.315817,48.9554225 78.5269842,49.2721752 78.8648544,49.5255774 L83.2993928,52.8198059 C83.5527949,53.0732081 83.8906652,53.1787917 84.3130015,53.1365586 C84.7353379,53.0943256 85.0732081,52.9042739 85.3266103,52.5664037 C86.6780893,50.9615225 87.7339311,49.8634477 88.4941377,49.2721752 C89.6766806,48.4275006 91.0281596,48.0051643 92.5485727,48.0051643 C93.9845178,48.0051643 95.3148793,48.4063851 96.5396572,49.2088247 C97.7644351,50.0112643 98.3768231,51.0037575 98.3768231,52.1863004 C98.3768231,53.1154411 97.9967198,53.9178827 97.2365132,54.5936212 C96.7297088,55.0159576 95.7583331,55.649463 94.322388,56.4941377 L94.0689858,56.6208388 C91.9573003,57.8033817 90.4791221,58.8592254 89.6344475,59.7883661 C88.1140344,61.3932473 87.3538278,63.2937637 87.3538278,65.4899154 L87.3538278,65.9967198 C87.3538278,66.4190561 87.5016464,66.7780439 87.7972816,67.0736791 C88.0929169,67.3693144 88.4519046,67.5171329 88.8742409,67.5171329 L95.9695023,67.5171329 C96.3918386,67.5171329 96.7508263,67.3693144 97.0464616,67.0736791 C97.3420968,66.7780439 97.4899154,66.4190561 97.4899154,65.9967198 L97.4899154,65.8700187 C97.4899154,65.1942802 97.8277856,64.6030078 98.5035242,64.0962034 C98.9258605,63.7583331 99.7283021,63.2515288 100.910845,62.5757902 C103.106997,61.2243112 104.669645,60.0417683 105.598786,59.0281596 C107.203667,57.2543442 108.006106,55.0159576 108.006106,52.3130015 C108.006106,49.9479138 107.288133,47.7728796 105.852188,45.7878951 C104.416243,43.8029106 102.557959,42.2402644 100.27734,41.0999546 C97.9967198,39.9596447 95.673867,39.3894898 93.3087793,39.3894898 Z M92.4218716,70.8113614 C90.8169904,70.8113614 89.4443959,71.3815163 88.304086,72.5218262 C87.1637762,73.6621361 86.5936212,75.0347306 86.5936212,76.6396118 C86.5936212,78.244493 87.1637762,79.6170875 88.304086,80.7573974 C89.4443959,81.8977072 90.8169904,82.4678622 92.4218716,82.4678622 C94.0267528,82.4678622 95.3993473,81.8977072 96.5396572,80.7573974 C97.6799671,79.6170875 98.250122,78.244493 98.250122,76.6396118 C98.250122,75.0347306 97.6799671,73.6621361 96.5396572,72.5218262 C95.3993473,71.3815163 94.0267528,70.8113614 92.4218716,70.8113614 Z" id="question-circle" fill="#FFFFFF"></path>
            </g>
        </g>
    </g>
</svg>