<svg width="217" height="237" viewBox="0 0 217 237" xmlns="http://www.w3.org/2000/svg" xmlns:xlink="http://www.w3.org/1999/xlink"><title>Avataaar/Circle</title><defs><circle id="a" cx="108" cy="108" r="108"/><path d="M10.8 144H0V0h237.6v144h-10.8c0 59.647-48.353 108-108 108s-108-48.353-108-108z" id="c"/><path d="M111.6 130.15v16.55h3.6c35.788 0 64.8 29.012 64.8 64.8v8.1H0v-8.1c0-35.788 29.012-64.8 64.8-64.8h3.6v-16.55c-15.514-7.37-26.665-22.432-28.525-40.257-5.243-.741-9.275-5.246-9.275-10.693V66.6c0-5.351 3.892-9.794 9-10.65V50.4C39.6 22.565 62.165 0 90 0c27.835 0 50.4 22.565 50.4 50.4v5.55c5.108.856 9 5.299 9 10.65v12.6c0 5.447-4.032 9.952-9.275 10.693-1.86 17.825-13.011 32.887-28.525 40.257z" id="e"/><path d="M97.2 11.764V28.8c0 11.93 9.67 21.6 21.6 21.6 11.93 0 21.6-9.67 21.6-21.6V11.764c16.127 1.804 28.548 6.733 28.796 19.416C192.468 41.011 208.8 64.048 208.8 90.9V99h-180v-8.1c0-26.852 16.332-49.889 39.604-59.72.248-12.683 12.67-17.612 28.796-19.416z" id="g"/><path d="M31.606 13.615C32.558 22.158 39.803 28.8 48.6 28.8c8.824 0 16.087-6.683 17.003-15.264.073-.69-.698-1.836-1.665-1.836h-30.56c-.972 0-1.867 1.06-1.772 1.915z" id="i"/><path id="k" d="M0 0h237.6v252H0z"/><path d="M162.135 35.928c-2.484-2.538-5.368-4.692-8.173-6.852-.619-.476-1.247-.941-1.853-1.435-.137-.113-1.546-1.122-1.715-1.493-.406-.894-.17-.198-.114-1.264.07-1.349 2.82-5.157.768-6.03-.902-.384-2.512.638-3.378.976a53.54 53.54 0 0 1-5.158 1.71c.839-1.671 2.438-5.016-.568-4.121-2.341.697-4.523 2.49-6.876 3.334.779-1.276 3.892-5.23 1.079-5.45-.876-.07-3.423 1.572-4.365 1.923-2.823 1.049-5.707 1.727-8.671 2.261-10.078 1.817-21.863 1.299-31.188 5.887-7.188 3.537-14.287 9.026-18.44 16.015-4.002 6.736-5.499 14.109-6.337 21.828-.614 5.665-.664 11.521-.377 17.207.094 1.863.304 10.45 3.01 7.85 1.348-1.296 1.338-6.529 1.678-8.3.676-3.523 1.326-7.063 2.453-10.474 1.985-6.01 4.328-8.813 9.274-12.953 3.175-2.657 5.404-6.247 8.441-8.927 1.365-1.204.324-1.078 2.518-.92 1.473.106 2.954.146 4.43.185 3.417.089 6.839.066 10.256.078 6.882.025 13.732.122 20.608-.238 3.055-.16 6.12-.247 9.166-.53 1.703-.157 4.723-1.248 6.125-.415 1.282.763 2.614 3.254 3.535 4.274 2.175 2.41 4.77 4.251 7.313 6.228 5.305 4.121 7.983 5.698 9.594 12.139 1.605 6.417 1.155 12.37 3.142 18.685.35 1.11 1.274 3.024 2.414 1.309.211-.319.157-2.07.157-3.078 0-4.067 1.03-7.12 1.017-11.214-.05-12.449-.453-28.681-9.765-38.195z" id="m"/></defs><g transform="translate(-10 -15)" fill="none" fill-rule="evenodd"><g transform="translate(10.8 36)"><mask id="b" fill="#fff"><use xlink:href="#a"/></mask><use fill="#E6E6E6" xlink:href="#a"/><g mask="url(#b)" fill="#8C43FF"><path d="M0 0h216.445v216H0z"/></g></g><mask id="d" fill="#fff"><use xlink:href="#c"/></mask><g mask="url(#d)"><g transform="translate(28.8 32.4)"><mask id="f" fill="#fff"><use xlink:href="#e"/></mask><use fill="#D0C6AC" xlink:href="#e"/><g mask="url(#f)" fill="#FFDBB4"><path d="M-28.8 0h238.384v220.355H-28.8z"/></g><path d="M140.4 84.6v7.2c0 27.835-22.565 50.4-50.4 50.4-27.835 0-50.4-22.565-50.4-50.4v-7.2c0 27.835 22.565 50.4 50.4 50.4 27.835 0 50.4-22.565 50.4-50.4z" fill-opacity=".1" fill="#000" mask="url(#f)"/></g><g transform="translate(0 153)"><mask id="h" fill="#fff"><use xlink:href="#g"/></mask><use fill="#B7C1DB" xlink:href="#g"/><g mask="url(#h)" fill="#293347"><path d="M0 0h238.491v99H0z"/></g><path d="M91.8 55.565V99h-6.3V52.335a58.087 58.087 0 0 0 6.3 3.23zm60.3-3.23V88.65a3.15 3.15 0 1 1-6.3 0V55.565a58.087 58.087 0 0 0 6.3-3.23z" fill="#F4F4F4" mask="url(#h)"/><path d="M118.79 61.2c-30.112-.003-59.84-14.384-59.84-32.123 0-9.958 9.368-15.063 22.914-17.625C73.688 14.467 68.4 19.535 68.4 27.969c0 18.35 25.033 33.227 50.39 33.231zm36.946-49.748c13.546 2.562 22.914 7.667 22.914 17.625 0 17.74-29.728 32.12-59.84 32.123 25.357-.004 50.39-14.88 50.39-33.23 0-8.435-5.288-13.503-13.464-16.518z" fill-opacity=".16" fill="#000" mask="url(#h)"/></g><g transform="translate(70.2 120.6)"><mask id="j" fill="#fff"><use xlink:href="#i"/></mask><use fill-opacity=".7" fill="#000" xlink:href="#i"/><path d="M39.6 1.8h18.9A4.5 4.5 0 0 1 63 6.3v5.4a4.5 4.5 0 0 1-4.5 4.5H39.6a4.5 4.5 0 0 1-4.5-4.5V6.3a4.5 4.5 0 0 1 4.5-4.5z" fill="#FFF" mask="url(#j)"/><g mask="url(#j)" fill="#FF4F6D"><g transform="translate(34.2 21.6)"><circle cx="9.9" cy="9.9" r="9.9"/><circle cx="18.9" cy="9.9" r="9.9"/></g></g></g><path d="M108 117c0 3.976 4.835 7.2 10.8 7.2 5.965 0 10.8-3.224 10.8-7.2" fill="#000" fill-opacity=".16"/><g fill="#000" fill-opacity=".6"><path d="M82.944 101.203c1.662-3.42 5.404-5.803 9.754-5.803 4.334 0 8.065 2.367 9.736 5.766.496 1.01-.21 1.837-.922 1.224-2.206-1.896-5.34-3.08-8.814-3.08-3.367 0-6.412 1.11-8.604 2.904-.802.656-1.636-.011-1.15-1.011zM135.144 101.203c1.662-3.42 5.404-5.803 9.754-5.803 4.334 0 8.065 2.367 9.736 5.766.496 1.01-.21 1.837-.922 1.224-2.206-1.896-5.34-3.08-8.814-3.08-3.367 0-6.412 1.11-8.604 2.904-.802.656-1.636-.011-1.15-1.011z"/></g><g fill="#000" fill-opacity=".6"><path d="M92.293 79.334c-5.227.241-13.676 4.039-13.458 9.309.007.172.26.248.384.116 2.48-2.664 20.084-5.355 26.285-3.929.567.13.998-.43.639-.834-3.08-3.463-9.168-4.883-13.85-4.662M146.207 79.334c5.227.241 13.676 4.039 13.458 9.309-.007.172-.26.248-.384.116-2.48-2.664-20.084-5.355-26.285-3.929-.567.13-.998-.43-.639-.834 3.08-3.463 9.168-4.883 13.85-4.662"/></g><g><mask id="l" fill="#fff"><use xlink:href="#k"/></mask><g mask="url(#l)"><g transform="translate(-.9)"><mask id="n" fill="#fff"><use xlink:href="#m"/></mask><use fill="#1F3140" xlink:href="#m"/><g mask="url(#n)"><path d="M.9 0h239.107v252.406H.9z" fill="#4A312C"/></g></g></g></g></g></g></svg>