<?xml version="1.0" encoding="UTF-8" standalone="no"?>
<svg width="52px" height="48px" viewBox="0 0 52 48" version="1.1" xmlns="http://www.w3.org/2000/svg" xmlns:xlink="http://www.w3.org/1999/xlink">
    <!-- Generator: Sketch 49 (51002) - http://www.bohemiancoding.com/sketch -->
    <title>Shape</title>
    <desc>Created with Sketch.</desc>
    <defs></defs>
    <g id="Website" stroke="none" stroke-width="1" fill="none" fill-rule="evenodd">
        <g id="Home" transform="translate(-60.000000, -26.000000)" fill="#8C43FF" fill-rule="nonzero">
            <path d="M104.764306,41.0410509 C102.116461,41.0410509 99.6783464,42.4860427 98.4068566,44.8243021 L94.5399546,51.9310345 L91.2891354,45.9014778 C89.6637257,42.6962233 85.1020923,42.2758621 83.4504663,45.4679803 L80.0423494,52.0492611 L74.9039577,42.5123153 L68.7431308,42.4729064 L76.1099067,56.4761905 C77.6697756,59.4449918 81.8774893,59.4975369 83.5291152,56.5812808 L87.199395,50.0656814 L90.7648097,56.5681445 C92.364003,59.4844007 96.5586085,59.4975369 98.1578019,56.5812808 L103.152004,47.543514 C104.056466,45.9014778 106.533905,46.545156 106.533905,48.410509 L106.547013,60.4302135 C106.547013,64.8965517 102.916057,68.5353038 98.4592891,68.5353038 L73.5669271,68.5353038 C69.1101588,68.5353038 65.4792034,64.8965517 65.4792034,60.4302135 L65.4792034,39.5960591 C65.4792034,35.1297209 69.1101588,31.4909688 73.5669271,31.4909688 L106.966473,31.4909688 L106.966473,26 L73.5669271,26 C66.082178,26 60,32.0952381 60,39.5960591 L60,60.4039409 C60,67.9178982 66.0690698,74 73.5669271,74 L98.4330729,74 C105.93093,74 112,67.9178982 112,60.4039409 L112,49.1855501 L112,48.2922824 C112,44.2857143 108.762289,41.0410509 104.764306,41.0410509 Z" id="Shape" transform="translate(86.000000, 50.000000) scale(1, -1) translate(-86.000000, -50.000000) "></path>
        </g>
    </g>
</svg>