<?xml version="1.0" encoding="UTF-8" standalone="no"?>
<svg width="52px" height="48px" viewBox="0 0 52 48" version="1.1" xmlns="http://www.w3.org/2000/svg" xmlns:xlink="http://www.w3.org/1999/xlink">
    <!-- Generator: Sketch 49.1 (51147) - http://www.bohemiancoding.com/sketch -->
    <title>Shape</title>
    <desc>Created with Sketch.</desc>
    <defs></defs>
    <g id="Website" stroke="none" stroke-width="1" fill="none" fill-rule="evenodd">
        <g id="Home" transform="translate(-694.000000, -5859.000000)" fill="#FFFFFF" fill-rule="nonzero">
            <path d="M738.764306,5874.04105 C736.116461,5874.04105 733.678346,5875.48604 732.406857,5877.8243 L728.539955,5884.93103 L725.289135,5878.90148 C723.663726,5875.69622 719.102092,5875.27586 717.450466,5878.46798 L714.042349,5885.04926 L708.903958,5875.51232 L702.743131,5875.47291 L710.109907,5889.47619 C711.669776,5892.44499 715.877489,5892.49754 717.529115,5889.58128 L721.199395,5883.06568 L724.76481,5889.56814 C726.364003,5892.4844 730.558609,5892.49754 732.157802,5889.58128 L737.152004,5880.54351 C738.056466,5878.90148 740.533905,5879.54516 740.533905,5881.41051 L740.547013,5893.43021 C740.547013,5897.89655 736.916057,5901.5353 732.459289,5901.5353 L707.566927,5901.5353 C703.110159,5901.5353 699.479203,5897.89655 699.479203,5893.43021 L699.479203,5872.59606 C699.479203,5868.12972 703.110159,5864.49097 707.566927,5864.49097 L740.966473,5864.49097 L740.966473,5859 L707.566927,5859 C700.082178,5859 694,5865.09524 694,5872.59606 L694,5893.40394 C694,5900.9179 700.06907,5907 707.566927,5907 L732.433073,5907 C739.93093,5907 746,5900.9179 746,5893.40394 L746,5882.18555 L746,5881.29228 C746,5877.28571 742.762289,5874.04105 738.764306,5874.04105 Z" id="Shape" transform="translate(720.000000, 5883.000000) scale(1, -1) translate(-720.000000, -5883.000000) "></path>
        </g>
    </g>
</svg>